<svg width="31" height="31" viewBox="0 0 31 31" fill="none" xmlns="http://www.w3.org/2000/svg">
<path d="M27.125 20.6666V10.3333C27.1245 9.88027 27.0049 9.43533 26.7782 9.04312C26.5515 8.65091 26.2257 8.32522 25.8333 8.0987L16.7917 2.93204C16.399 2.7053 15.9535 2.58594 15.5 2.58594C15.0465 2.58594 14.601 2.7053 14.2083 2.93204L5.16667 8.0987C4.77434 8.32522 4.44847 8.65091 4.22176 9.04312C3.99505 9.43533 3.87546 9.88027 3.875 10.3333V20.6666C3.87546 21.1196 3.99505 21.5646 4.22176 21.9568C4.44847 22.349 4.77434 22.6747 5.16667 22.9012L14.2083 28.0679C14.601 28.2946 15.0465 28.414 15.5 28.414C15.9535 28.414 16.399 28.2946 16.7917 28.0679L25.8333 22.9012C26.2257 22.6747 26.5515 22.349 26.7782 21.9568C27.0049 21.5646 27.1245 21.1196 27.125 20.6666Z" stroke="black" stroke-width="2" stroke-linecap="round" stroke-linejoin="round"/>
<path d="M4.22363 8.98999L15.4999 15.5129L26.7761 8.98999" stroke="black" stroke-width="2" stroke-linecap="round" stroke-linejoin="round"/>
<path d="M15.5 28.52V15.5" stroke="black" stroke-width="2" stroke-linecap="round" stroke-linejoin="round"/>
</svg>
