<svg width="28" height="24" viewBox="0 0 28 24" fill="none" xmlns="http://www.w3.org/2000/svg">
<path d="M12.6665 24V22H23.9998V11.8667C23.9998 10.5778 23.7221 9.33889 23.1665 8.15C22.6109 6.96111 21.8665 5.91111 20.9332 5C19.9998 4.08889 18.9332 3.36111 17.7332 2.81667C16.5332 2.27222 15.2887 2 13.9998 2C12.7109 2 11.4665 2.27222 10.2665 2.81667C9.0665 3.36111 7.99984 4.08889 7.0665 5C6.13317 5.91111 5.38873 6.96111 4.83317 8.15C4.27761 9.33889 3.99984 10.5778 3.99984 11.8667V20H3.33317C2.59984 20 1.97206 19.7389 1.44984 19.2167C0.927615 18.6944 0.666504 18.0667 0.666504 17.3333V14.6667C0.666504 14.1556 0.788726 13.7056 1.03317 13.3167C1.27762 12.9278 1.59984 12.6111 1.99984 12.3667L2.09984 10.6C2.29984 8.97778 2.76095 7.51111 3.48317 6.2C4.20539 4.88889 5.10539 3.77778 6.18317 2.86667C7.26095 1.95556 8.47206 1.25 9.8165 0.75C11.1609 0.25 12.5554 0 13.9998 0C15.4665 0 16.8721 0.25 18.2165 0.75C19.5609 1.25 20.7665 1.96111 21.8332 2.88333C22.8998 3.80556 23.7943 4.91667 24.5165 6.21667C25.2387 7.51667 25.6998 8.96667 25.8998 10.5667L25.9998 12.3C26.3998 12.5 26.7221 12.7944 26.9665 13.1833C27.2109 13.5722 27.3332 14 27.3332 14.4667V17.5333C27.3332 18.0222 27.2109 18.4556 26.9665 18.8333C26.7221 19.2111 26.3998 19.5 25.9998 19.7V22C25.9998 22.5556 25.8054 23.0278 25.4165 23.4167C25.0276 23.8056 24.5554 24 23.9998 24H12.6665ZM9.99984 14.3333C9.73317 14.3333 9.49984 14.2333 9.29984 14.0333C9.09984 13.8333 8.99984 13.5889 8.99984 13.3C8.99984 13.0333 9.09984 12.8056 9.29984 12.6167C9.49984 12.4278 9.74428 12.3333 10.0332 12.3333C10.2998 12.3333 10.5276 12.4278 10.7165 12.6167C10.9054 12.8056 10.9998 13.0444 10.9998 13.3333C10.9998 13.6 10.9054 13.8333 10.7165 14.0333C10.5276 14.2333 10.2887 14.3333 9.99984 14.3333ZM17.9998 14.3333C17.7332 14.3333 17.4998 14.2333 17.2998 14.0333C17.0998 13.8333 16.9998 13.5889 16.9998 13.3C16.9998 13.0333 17.0998 12.8056 17.2998 12.6167C17.4998 12.4278 17.7443 12.3333 18.0332 12.3333C18.2998 12.3333 18.5276 12.4278 18.7165 12.6167C18.9054 12.8056 18.9998 13.0444 18.9998 13.3333C18.9998 13.6 18.9054 13.8333 18.7165 14.0333C18.5276 14.2333 18.2887 14.3333 17.9998 14.3333ZM6.03317 12.6C5.94428 11.2889 6.12761 10.1 6.58317 9.03333C7.03873 7.96667 7.64984 7.06111 8.4165 6.31667C9.18317 5.57222 10.0665 5 11.0665 4.6C12.0665 4.2 13.0665 4 14.0665 4C16.0887 4 17.7887 4.63889 19.1665 5.91667C20.5443 7.19444 21.3887 8.78889 21.6998 10.7C19.6109 10.6778 17.7721 10.1167 16.1832 9.01667C14.5943 7.91667 13.3665 6.48889 12.4998 4.73333C12.1443 6.53333 11.3943 8.12778 10.2498 9.51667C9.10539 10.9056 7.69984 11.9333 6.03317 12.6Z" fill="black"/>
</svg>
