<svg width="21" height="21" viewBox="0 0 21 21" fill="none" xmlns="http://www.w3.org/2000/svg">
<path d="M20.3946 7.46535C20.5873 8.1114 20.7201 8.7837 20.7864 9.47565L20.2887 9.52334C20.3194 9.84456 20.3352 10.1703 20.3352 10.5C20.3352 10.8297 20.3194 11.1554 20.2887 11.4767L20.7864 11.5243C20.7201 12.2163 20.5873 12.8886 20.3946 13.5347L19.9155 13.3917C19.7274 14.0221 19.4795 14.6263 19.1782 15.1975L19.6205 15.4307C19.2998 16.0388 18.9217 16.6112 18.4934 17.1406L18.1047 16.8262C17.6944 17.3334 17.2358 17.7991 16.7361 18.216L17.0564 18.5999C16.5325 19.0371 15.9655 19.4234 15.3628 19.7513L15.1238 19.3121C14.5562 19.6209 13.9554 19.8752 13.3284 20.0682L13.4754 20.5461C12.8305 20.7445 12.159 20.8813 11.4677 20.9496L11.4185 20.4521C11.0979 20.4838 10.7726 20.5 10.4435 20.5C10.1143 20.5 9.78909 20.4838 9.46847 20.4521L9.41928 20.9496C8.72792 20.8813 8.05643 20.7445 7.41153 20.5461L7.5586 20.0682C6.93155 19.8752 6.33079 19.6209 5.76315 19.3121L5.52421 19.7513C4.92146 19.4234 4.35443 19.0371 3.83054 18.5999L4.15089 18.216C3.65119 17.7991 3.1926 17.3334 2.78228 16.8262L2.39356 17.1406C1.96527 16.6112 1.58713 16.0388 1.26645 15.4307L1.70872 15.1975C1.4075 14.6263 1.15954 14.0221 0.971502 13.3917L0.492364 13.5347C0.299653 12.8886 0.166881 12.2163 0.100578 11.5243L0.598298 11.4767C0.56752 11.1554 0.551758 10.8297 0.551758 10.5C0.551758 10.1703 0.56752 9.84455 0.598298 9.52334L0.100578 9.47565C0.166881 8.7837 0.299654 8.11139 0.492365 7.46534L0.971502 7.60827C1.15954 6.97788 1.40751 6.37373 1.70872 5.80255L1.26645 5.56931C1.58713 4.96123 1.96527 4.38878 2.39356 3.85936L2.78229 4.17383C3.1926 3.66663 3.65119 3.20094 4.15089 2.78396L3.83054 2.40006C4.35444 1.96288 4.92146 1.5766 5.52421 1.24869L5.76315 1.68791C6.33079 1.3791 6.93154 1.1248 7.55859 0.931833L7.41153 0.453949C8.05643 0.255491 8.72792 0.118694 9.41928 0.0503533L9.46846 0.547928C9.78909 0.516235 10.1143 0.5 10.4435 0.5C10.7726 0.5 11.0979 0.516235 11.4185 0.547928L11.4677 0.0503531C12.159 0.118694 12.8305 0.255491 13.4754 0.453949L13.3284 0.931833C13.9554 1.1248 14.5562 1.3791 15.1238 1.68791L15.3628 1.24869C15.9655 1.5766 16.5325 1.96288 17.0564 2.40006L16.7361 2.78396C17.2358 3.20094 17.6944 3.66663 18.1047 4.17383L18.4934 3.85936C18.9217 4.38878 19.2998 4.96124 19.6205 5.56932L19.1782 5.80255C19.4795 6.37373 19.7274 6.97788 19.9155 7.60827L20.3946 7.46535Z" stroke="black" stroke-dasharray="2 2"/>
<ellipse cx="10.4438" cy="10.5" rx="4.4536" ry="4.5" fill="black"/>
</svg>
