<svg width="51" height="22" viewBox="0 0 51 22" fill="none" xmlns="http://www.w3.org/2000/svg">
<path d="M10.0004 0.34806H40.0016C45.3324 0.34806 49.6539 4.66956 49.6539 10.0004V11.5794C49.6539 16.9102 45.3324 21.2317 40.0016 21.2317H10.0004C4.66956 21.2317 0.34806 16.9102 0.34806 11.5794V10.0004C0.34806 4.66956 4.66956 0.34806 10.0004 0.34806Z" fill="url(#paint0_linear_1601_77336)" stroke="#D7D7D7" stroke-width="0.696121"/>
<path d="M31.6747 18.1938C31.8669 18.1938 32.0228 18.038 32.0228 17.8457C32.0228 17.6535 31.8669 17.4977 31.6747 17.4977C31.4825 17.4977 31.3267 17.6535 31.3267 17.8457C31.3267 18.038 31.4825 18.1938 31.6747 18.1938Z" fill="white"/>
<path d="M38.4533 8.99133C38.6111 8.99133 38.739 8.86211 38.739 8.7027C38.739 8.54329 38.6111 8.41406 38.4533 8.41406C38.2954 8.41406 38.1675 8.54329 38.1675 8.7027C38.1675 8.86211 38.2954 8.99133 38.4533 8.99133Z" fill="white"/>
<path d="M33.9417 10.6913C34.3564 10.691 34.7645 10.5867 35.1294 10.3877C34.6914 10.8627 34.1219 11.1936 33.495 11.3372C32.8682 11.4807 32.2131 11.4304 31.615 11.1927C31.0169 10.9549 30.5036 10.5409 30.1418 10.0043C29.7799 9.46779 29.5864 8.83367 29.5864 8.1845C29.5864 7.53533 29.7799 6.90121 30.1418 6.36467C30.5036 5.82814 31.0169 5.41406 31.615 5.17633C32.2131 4.93861 32.8682 4.88827 33.495 5.03185C34.1219 5.17543 34.6914 5.50628 35.1294 5.98135C34.7653 5.78016 34.3567 5.67568 33.9417 5.6777C33.2835 5.6777 32.6523 5.94178 32.1869 6.41184C31.7215 6.8819 31.46 7.51944 31.46 8.18421C31.46 8.84898 31.7215 9.48652 32.1869 9.95658C32.6523 10.4266 33.2835 10.6913 33.9417 10.6913Z" fill="#FFDC7B"/>
<path d="M27.2762 11.4543C27.3457 11.4885 27.4295 11.4593 27.4634 11.3891C27.4973 11.3189 27.4684 11.2342 27.3988 11.2C27.3293 11.1658 27.2455 11.195 27.2116 11.2652C27.1777 11.3354 27.2066 11.4201 27.2762 11.4543Z" fill="white"/>
<path d="M39.806 16.3271C39.8755 16.3613 39.9593 16.3321 39.9932 16.2619C40.027 16.1917 39.9981 16.107 39.9286 16.0728C39.8591 16.0386 39.7753 16.0678 39.7414 16.138C39.7075 16.2082 39.7364 16.2929 39.806 16.3271Z" fill="white"/>
<path d="M23.0663 4.63773C23.1177 4.78846 23.2803 4.86857 23.4295 4.81667C23.5788 4.76477 23.6581 4.60051 23.6067 4.44979C23.5553 4.29907 23.3927 4.21895 23.2435 4.27085C23.0942 4.32275 23.0149 4.48701 23.0663 4.63773Z" fill="white"/>
<path d="M43.2538 4.63773C43.3052 4.78846 43.4678 4.86857 43.617 4.81667C43.7663 4.76477 43.8456 4.60051 43.7942 4.44979C43.7428 4.29907 43.5802 4.21895 43.431 4.27085C43.2817 4.32275 43.2024 4.48701 43.2538 4.63773Z" fill="white"/>
<path d="M41.9081 14.2165C41.9851 14.2233 42.053 14.1658 42.0597 14.088C42.0665 14.0102 42.0095 13.9416 41.9324 13.9348C41.8554 13.928 41.7875 13.9856 41.7808 14.0634C41.7741 14.1411 41.831 14.2097 41.9081 14.2165Z" fill="white"/>
<defs>
<linearGradient id="paint0_linear_1601_77336" x1="6.31604" y1="1.57901" x2="52.3705" y2="23.9483" gradientUnits="userSpaceOnUse">
<stop stop-color="#25463C"/>
<stop offset="1" stop-color="#1D1D1D"/>
</linearGradient>
</defs>
</svg>
