<svg width="14" height="24" viewBox="0 0 14 24" fill="none" xmlns="http://www.w3.org/2000/svg">
<path d="M9.33333 10.8334H4.66667C4.04783 10.8334 3.45434 10.5875 3.01675 10.15C2.57917 9.71237 2.33333 9.11888 2.33333 8.50004C2.33333 7.8812 2.57917 7.28771 3.01675 6.85012C3.45434 6.41254 4.04783 6.16671 4.66667 6.16671H10.5C10.8094 6.16671 11.1062 6.28962 11.325 6.50842C11.5437 6.72721 11.6667 7.02395 11.6667 7.33337C11.6667 7.64279 11.7896 7.93954 12.0084 8.15833C12.2272 8.37712 12.5239 8.50004 12.8333 8.50004C13.1428 8.50004 13.4395 8.37712 13.6583 8.15833C13.8771 7.93954 14 7.64279 14 7.33337C14 6.40512 13.6313 5.51488 12.9749 4.8585C12.3185 4.20212 11.4283 3.83337 10.5 3.83337H8.16667V1.50004C8.16667 1.19062 8.04375 0.893875 7.82496 0.675083C7.60616 0.45629 7.30942 0.333374 7 0.333374C6.69058 0.333374 6.39383 0.45629 6.17504 0.675083C5.95625 0.893875 5.83333 1.19062 5.83333 1.50004V3.83337H4.66667C3.42899 3.83337 2.242 4.32504 1.36683 5.20021C0.491665 6.07538 0 7.26236 0 8.50004C0 9.73772 0.491665 10.9247 1.36683 11.7999C2.242 12.675 3.42899 13.1667 4.66667 13.1667H9.33333C9.95217 13.1667 10.5457 13.4125 10.9832 13.8501C11.4208 14.2877 11.6667 14.8812 11.6667 15.5C11.6667 16.1189 11.4208 16.7124 10.9832 17.15C10.5457 17.5875 9.95217 17.8334 9.33333 17.8334H3.5C3.19058 17.8334 2.89383 17.7105 2.67504 17.4917C2.45625 17.2729 2.33333 16.9761 2.33333 16.6667C2.33333 16.3573 2.21042 16.0605 1.99162 15.8417C1.77283 15.623 1.47609 15.5 1.16667 15.5C0.857247 15.5 0.560501 15.623 0.341709 15.8417C0.122917 16.0605 0 16.3573 0 16.6667C0 17.595 0.368749 18.4852 1.02513 19.1416C1.6815 19.798 2.57174 20.1667 3.5 20.1667H5.83333V22.5C5.83333 22.8095 5.95625 23.1062 6.17504 23.325C6.39383 23.5438 6.69058 23.6667 7 23.6667C7.30942 23.6667 7.60616 23.5438 7.82496 23.325C8.04375 23.1062 8.16667 22.8095 8.16667 22.5V20.1667H9.33333C10.571 20.1667 11.758 19.675 12.6332 18.7999C13.5083 17.9247 14 16.7377 14 15.5C14 14.2624 13.5083 13.0754 12.6332 12.2002C11.758 11.325 10.571 10.8334 9.33333 10.8334V10.8334Z" fill="black"/>
</svg>
