<svg width="30" height="28" viewBox="0 0 30 28" fill="none" xmlns="http://www.w3.org/2000/svg">
<path d="M14.5 25.3333C14.6111 25.3333 14.7389 25.3055 14.8833 25.25C15.0278 25.1944 15.1444 25.1222 15.2333 25.0333L26.4667 13.7666C26.7556 13.4777 26.9722 13.15 27.1167 12.7833C27.2611 12.4166 27.3333 12.0444 27.3333 11.6666C27.3333 11.2888 27.2611 10.9111 27.1167 10.5333C26.9722 10.1555 26.7556 9.82217 26.4667 9.53328L20.4667 3.53328C20.1778 3.2444 19.8444 3.02773 19.4667 2.88328C19.0889 2.73884 18.7111 2.66662 18.3333 2.66662C17.9556 2.66662 17.5833 2.73884 17.2167 2.88328C16.85 3.02773 16.5222 3.2444 16.2333 3.53328L15.6333 4.13328L18.3333 6.86662C18.6222 7.17773 18.8778 7.53884 19.1 7.94995C19.3222 8.36106 19.4333 8.81106 19.4333 9.29995C19.4333 10.1444 19.1056 10.8888 18.45 11.5333C17.7944 12.1777 17.0444 12.5 16.2 12.5C15.6444 12.5 15.1833 12.4166 14.8167 12.25C14.45 12.0833 14.1111 11.8444 13.8 11.5333L11.3667 9.09995L5.33333 15.1333C5.22222 15.2444 5.14444 15.3611 5.1 15.4833C5.05556 15.6055 5.03333 15.7333 5.03333 15.8666C5.03333 16.1555 5.12778 16.3944 5.31667 16.5833C5.50556 16.7722 5.74444 16.8666 6.03333 16.8666C6.16667 16.8666 6.29444 16.8333 6.41667 16.7666C6.53889 16.6999 6.64444 16.6222 6.73333 16.5333L11.3333 11.9333L12.7333 13.3333L8.16667 17.9C8.05556 18.0111 7.97778 18.1333 7.93333 18.2666C7.88889 18.4 7.86667 18.5333 7.86667 18.6666C7.86667 18.9333 7.96667 19.1666 8.16667 19.3666C8.36667 19.5666 8.6 19.6666 8.86667 19.6666C9 19.6666 9.12778 19.6388 9.25 19.5833C9.37222 19.5277 9.47778 19.4555 9.56667 19.3666L14.1667 14.7666L15.5667 16.1666L11 20.7333C10.9111 20.8222 10.8389 20.9388 10.7833 21.0833C10.7278 21.2277 10.7 21.3666 10.7 21.5C10.7 21.7666 10.8 22 11 22.1999C11.2 22.4 11.4333 22.5 11.7 22.5C11.8333 22.5 11.9556 22.4777 12.0667 22.4333C12.1778 22.3888 12.2889 22.3111 12.4 22.1999L17 17.5999L18.4 19L13.8 23.6C13.6889 23.7111 13.6111 23.8333 13.5667 23.9666C13.5222 24.1 13.5 24.2222 13.5 24.3333C13.5 24.6444 13.5889 24.8888 13.7667 25.0666C13.9444 25.2444 14.1889 25.3333 14.5 25.3333ZM14.5 27.3333C13.7667 27.3333 13.1111 27.0611 12.5333 26.5166C11.9556 25.9722 11.6111 25.2999 11.5 24.5C10.7444 24.3888 10.1111 24.0777 9.6 23.5666C9.08889 23.0555 8.77778 22.4222 8.66667 21.6666C7.91111 21.5555 7.28333 21.2388 6.78333 20.7166C6.28333 20.1944 5.97778 19.5666 5.86667 18.8333C5.04444 18.7222 4.36667 18.3888 3.83333 17.8333C3.3 17.2777 3.03333 16.6111 3.03333 15.8333C3.03333 15.4555 3.10556 15.0777 3.25 14.7C3.39444 14.3222 3.61111 13.9888 3.9 13.7L11.3667 6.23328L15.0333 9.89995C15.2111 10.0777 15.4056 10.2166 15.6167 10.3166C15.8278 10.4166 16.0333 10.4666 16.2333 10.4666C16.5222 10.4666 16.7944 10.3388 17.05 10.0833C17.3056 9.82773 17.4333 9.55551 17.4333 9.26662C17.4333 9.13328 17.3944 8.98328 17.3167 8.81662C17.2389 8.64995 17.1111 8.47773 16.9333 8.29995L12.1667 3.53328C11.8778 3.2444 11.5444 3.02773 11.1667 2.88328C10.7889 2.73884 10.4111 2.66662 10.0333 2.66662C9.65556 2.66662 9.28333 2.73884 8.91667 2.88328C8.55 3.02773 8.22222 3.2444 7.93333 3.53328L2.86667 8.59995C2.55556 8.91106 2.33889 9.23884 2.21667 9.58328C2.09444 9.92773 2.02222 10.3111 2 10.7333C1.97778 11.1777 2.06111 11.6055 2.25 12.0166C2.43889 12.4277 2.66667 12.8 2.93333 13.1333L1.5 14.5666C1.05556 14.0777 0.694444 13.4888 0.416667 12.8C0.138889 12.1111 0 11.4111 0 10.7C0 10.0333 0.127778 9.39439 0.383333 8.78328C0.638889 8.17217 1 7.63328 1.46667 7.16662L6.5 2.13328C6.98889 1.6444 7.54444 1.28328 8.16667 1.04995C8.78889 0.816618 9.42222 0.699951 10.0667 0.699951C10.7111 0.699951 11.3389 0.816618 11.95 1.04995C12.5611 1.28328 13.1111 1.6444 13.6 2.13328L14.2 2.73328L14.8 2.13328C15.2889 1.6444 15.8444 1.28328 16.4667 1.04995C17.0889 0.816618 17.7222 0.699951 18.3667 0.699951C19.0111 0.699951 19.6389 0.816618 20.25 1.04995C20.8611 1.28328 21.4111 1.6444 21.9 2.13328L27.8667 8.09995C28.3556 8.58884 28.7222 9.14439 28.9667 9.76662C29.2111 10.3888 29.3333 11.0222 29.3333 11.6666C29.3333 12.3111 29.2111 12.9388 28.9667 13.55C28.7222 14.1611 28.3556 14.7111 27.8667 15.2L16.6333 26.4333C16.3444 26.7222 16.0167 26.9444 15.65 27.1C15.2833 27.2555 14.9 27.3333 14.5 27.3333Z" fill="black"/>
</svg>
