<svg width="26" height="26" viewBox="0 0 26 26" fill="none" xmlns="http://www.w3.org/2000/svg">
<path d="M7.94898 23.8332H4.88907C4.34804 23.8332 3.82917 23.6049 3.44661 23.1986C3.06404 22.7922 2.84912 22.2411 2.84912 21.6665V14.0832C2.84912 13.5085 3.06404 12.9574 3.44661 12.5511C3.82917 12.1448 4.34804 11.9165 4.88907 11.9165H7.94898M15.0888 9.74984V5.4165C15.0888 4.55455 14.7664 3.7279 14.1926 3.11841C13.6187 2.50891 12.8404 2.1665 12.0289 2.1665L7.94898 11.9165V23.8332H19.4543C19.9462 23.8391 20.4236 23.6559 20.7985 23.3175C21.1734 22.9791 21.4204 22.5082 21.4942 21.9915L22.9018 12.2415C22.9461 11.931 22.9264 11.6139 22.844 11.3123C22.7615 11.0106 22.6183 10.7317 22.4243 10.4946C22.2302 10.2576 21.99 10.0683 21.7202 9.93966C21.4504 9.81105 21.1575 9.74628 20.8618 9.74984H15.0888Z" stroke="black" stroke-width="2" stroke-linecap="round" stroke-linejoin="round"/>
</svg>
