<svg width="132" height="22" viewBox="0 0 132 22" fill="none" xmlns="http://www.w3.org/2000/svg">
<g clip-path="url(#clip0_1307_77797)">
<path d="M5.42582 0H0V5.42582H5.42582V0Z" fill="url(#paint0_linear_1307_77797)"/>
<path d="M21.6739 5.41589H16.248V10.8417H21.6739V5.41589Z" fill="url(#paint1_linear_1307_77797)"/>
<path d="M16.2769 0H10.8511V5.42582H16.2769V0Z" fill="url(#paint2_linear_1307_77797)"/>
<path d="M16.2769 10.8506H10.8511V16.2764H16.2769V10.8506Z" fill="url(#paint3_linear_1307_77797)"/>
<path d="M21.7022 16.2764H16.2764V21.7022H21.7022V16.2764Z" fill="url(#paint4_linear_1307_77797)"/>
<path d="M21.7022 16.2764H16.2764V21.7022H21.7022V16.2764Z" fill="url(#paint5_linear_1307_77797)"/>
<path fill-rule="evenodd" clip-rule="evenodd" d="M0 10.8506H5.42582V16.2479V16.2764V21.6738H0V16.2764V16.2479V10.8506Z" fill="url(#paint6_linear_1307_77797)"/>
</g>
<path d="M40.194 4.9477C41.6652 4.9477 42.831 5.31549 43.6915 6.05109C44.5659 6.78668 45.0031 7.77904 45.0031 9.02816C45.0031 10.3189 44.5659 11.3182 43.6915 12.026C42.831 12.72 41.6652 13.067 40.194 13.067L39.9858 13.1919H36.8005V18.688H34.5938V4.9477H40.194ZM40.0274 11.339C40.9296 11.339 41.5958 11.1586 42.026 10.7977C42.4701 10.423 42.6922 9.85396 42.6922 9.09061C42.6922 8.34114 42.4701 7.77904 42.026 7.4043C41.5958 7.02956 40.9296 6.8422 40.0274 6.8422H36.8005V11.339H40.0274ZM41.339 11.797L45.815 18.688H43.2543L39.4237 12.6714L41.339 11.797Z" fill="black"/>
<path d="M52.2522 18.8962C51.2113 18.8962 50.2953 18.6811 49.5041 18.2508C48.713 17.8206 48.0954 17.203 47.6513 16.398C47.221 15.5791 47.0059 14.6076 47.0059 13.4834C47.0059 12.3591 47.221 11.3945 47.6513 10.5896C48.0954 9.77069 48.7061 9.14613 49.4833 8.71588C50.2606 8.28562 51.1419 8.0705 52.1273 8.0705C53.1405 8.0705 54.001 8.27868 54.7088 8.69506C55.4167 9.11143 55.9579 9.68047 56.3327 10.4022C56.7074 11.1239 56.8948 11.9428 56.8948 12.8588C56.8948 13.1086 56.8878 13.3446 56.874 13.5666C56.8601 13.7887 56.8393 13.983 56.8115 14.1496H48.4424V12.4424H55.833L54.7296 12.7755C54.7296 11.8317 54.4937 11.11 54.0218 10.6104C53.5499 10.0968 52.9045 9.84009 52.0857 9.84009C51.4889 9.84009 50.9684 9.97888 50.5243 10.2565C50.0801 10.534 49.7401 10.9504 49.5041 11.5056C49.2682 12.0469 49.1502 12.7131 49.1502 13.5042C49.1502 14.2814 49.2751 14.9407 49.525 15.4819C49.7748 16.0232 50.1287 16.4327 50.5867 16.7102C51.0447 16.9878 51.586 17.1266 52.2106 17.1266C52.9045 17.1266 53.4666 16.9948 53.8969 16.7311C54.3271 16.4674 54.6672 16.0996 54.917 15.6277L56.6866 16.4604C56.4368 16.9601 56.0967 17.3973 55.6665 17.772C55.2501 18.1329 54.7505 18.4104 54.1675 18.6047C53.5846 18.7991 52.9462 18.8962 52.2522 18.8962Z" fill="black"/>
<path d="M59.3956 18.688V8.27869H61.3734L61.4775 10.0275C61.8384 9.36126 62.3172 8.86855 62.914 8.54933C63.5247 8.23011 64.17 8.0705 64.8501 8.0705C65.5996 8.0705 66.2866 8.24399 66.9112 8.59096C67.5496 8.92406 68.0284 9.43065 68.3477 10.1107C68.5697 9.65272 68.8751 9.27104 69.2637 8.9657C69.6523 8.66036 70.0825 8.43829 70.5544 8.2995C71.0263 8.14683 71.4913 8.0705 71.9493 8.0705C72.6155 8.0705 73.24 8.20929 73.823 8.48687C74.4059 8.76445 74.8778 9.18777 75.2386 9.75681C75.5995 10.3259 75.7799 11.0545 75.7799 11.9428V18.688H73.5523V12.2967C73.5523 11.4501 73.3511 10.8394 72.9486 10.4646C72.5461 10.0899 72.0326 9.90254 71.408 9.90254C70.9222 9.90254 70.4712 10.0205 70.0548 10.2565C69.6523 10.4924 69.3261 10.8463 69.0763 11.3182C68.8265 11.7762 68.7016 12.3453 68.7016 13.0253V18.688H66.474V12.2967C66.474 11.4501 66.2727 10.8394 65.8702 10.4646C65.4677 10.0899 64.9542 9.90254 64.3297 9.90254C63.9133 9.90254 63.4969 10.0136 63.0805 10.2356C62.6642 10.4577 62.3172 10.8047 62.0396 11.2766C61.762 11.7485 61.6232 12.373 61.6232 13.1503V18.688H59.3956Z" fill="black"/>
<path d="M83.3625 8.0705C84.3757 8.0705 85.2709 8.28562 86.0481 8.71588C86.8253 9.14613 87.4291 9.77069 87.8593 10.5896C88.3034 11.3945 88.5255 12.3591 88.5255 13.4834C88.5255 14.6076 88.3034 15.5791 87.8593 16.398C87.4291 17.203 86.8253 17.8206 86.0481 18.2508C85.2709 18.6811 84.3757 18.8962 83.3625 18.8962C82.3493 18.8962 81.4541 18.6811 80.6769 18.2508C79.8996 17.8206 79.289 17.203 78.8448 16.398C78.4007 15.5791 78.1786 14.6076 78.1786 13.4834C78.1786 12.3591 78.4007 11.3945 78.8448 10.5896C79.289 9.77069 79.8996 9.14613 80.6769 8.71588C81.4541 8.28562 82.3493 8.0705 83.3625 8.0705ZM83.3625 9.81927C82.7379 9.81927 82.2036 9.965 81.7594 10.2565C81.3292 10.534 80.9961 10.9435 80.7601 11.4848C80.5242 12.026 80.4062 12.6922 80.4062 13.4834C80.4062 14.2606 80.5242 14.9268 80.7601 15.4819C80.9961 16.0232 81.3292 16.4396 81.7594 16.7311C82.2036 17.0086 82.7379 17.1474 83.3625 17.1474C83.987 17.1474 84.5144 17.0086 84.9447 16.7311C85.3749 16.4396 85.708 16.0232 85.944 15.4819C86.1799 14.9268 86.2979 14.2606 86.2979 13.4834C86.2979 12.6922 86.1799 12.026 85.944 11.4848C85.708 10.9435 85.3749 10.534 84.9447 10.2565C84.5144 9.965 83.987 9.81927 83.3625 9.81927Z" fill="black"/>
<path d="M93.9128 5.21834V15.5652C93.9128 16.0787 94.0447 16.4535 94.3084 16.6894C94.586 16.9254 94.9538 17.0433 95.4118 17.0433C95.7865 17.0433 96.1127 16.9878 96.3903 16.8768C96.6678 16.7519 96.9246 16.5853 97.1605 16.3771L97.6602 18.001C97.341 18.2786 96.9454 18.5007 96.4735 18.6672C96.0155 18.8199 95.502 18.8962 94.9329 18.8962C94.3361 18.8962 93.7879 18.7991 93.2883 18.6047C92.7886 18.4104 92.4 18.0982 92.1224 17.6679C91.8448 17.2238 91.6991 16.6478 91.6852 15.94V5.8429L93.9128 5.21834ZM97.4936 8.27869V10.0275H89.6866V8.27869H97.4936Z" fill="black"/>
<path d="M103.965 18.8962C102.924 18.8962 102.008 18.6811 101.217 18.2508C100.425 17.8206 99.8079 17.203 99.3637 16.398C98.9335 15.5791 98.7184 14.6076 98.7184 13.4834C98.7184 12.3591 98.9335 11.3945 99.3637 10.5896C99.8079 9.77069 100.419 9.14613 101.196 8.71588C101.973 8.28562 102.854 8.0705 103.84 8.0705C104.853 8.0705 105.713 8.27868 106.421 8.69506C107.129 9.11143 107.67 9.68047 108.045 10.4022C108.42 11.1239 108.607 11.9428 108.607 12.8588C108.607 13.1086 108.6 13.3446 108.586 13.5666C108.573 13.7887 108.552 13.983 108.524 14.1496H100.155V12.4424H107.545L106.442 12.7755C106.442 11.8317 106.206 11.11 105.734 10.6104C105.262 10.0968 104.617 9.84009 103.798 9.84009C103.201 9.84009 102.681 9.97888 102.237 10.2565C101.793 10.534 101.453 10.9504 101.217 11.5056C100.981 12.0469 100.863 12.7131 100.863 13.5042C100.863 14.2814 100.988 14.9407 101.237 15.4819C101.487 16.0232 101.841 16.4327 102.299 16.7102C102.757 16.9878 103.298 17.1266 103.923 17.1266C104.617 17.1266 105.179 16.9948 105.609 16.7311C106.04 16.4674 106.38 16.0996 106.629 15.6277L108.399 16.4604C108.149 16.9601 107.809 17.3973 107.379 17.772C106.963 18.1329 106.463 18.4104 105.88 18.6047C105.297 18.7991 104.659 18.8962 103.965 18.8962Z" fill="black"/>
<path d="M115.605 8.0705C116.438 8.0705 117.146 8.19541 117.728 8.44523C118.325 8.68118 118.825 9.02122 119.227 9.46535C119.63 9.90948 119.935 10.4161 120.143 10.9851L118.041 11.8179C117.86 11.1794 117.569 10.6937 117.166 10.3606C116.778 10.0136 116.264 9.84009 115.626 9.84009C115.001 9.84009 114.467 9.98582 114.023 10.2773C113.579 10.5549 113.239 10.9643 113.003 11.5056C112.781 12.0469 112.669 12.7131 112.669 13.5042C112.669 14.2814 112.787 14.9407 113.023 15.4819C113.259 16.0232 113.599 16.4327 114.044 16.7102C114.488 16.9878 115.015 17.1266 115.626 17.1266C116.098 17.1266 116.507 17.0503 116.854 16.8976C117.201 16.7311 117.486 16.5021 117.708 16.2106C117.944 15.9053 118.103 15.5375 118.186 15.1072L120.206 15.7942C120.012 16.4188 119.706 16.967 119.29 17.4389C118.887 17.8969 118.381 18.2578 117.77 18.5215C117.159 18.7713 116.458 18.8962 115.667 18.8962C114.64 18.8962 113.731 18.6811 112.94 18.2508C112.149 17.8206 111.531 17.203 111.087 16.398C110.657 15.5791 110.442 14.6076 110.442 13.4834C110.442 12.3591 110.657 11.3945 111.087 10.5896C111.531 9.77069 112.142 9.14613 112.919 8.71588C113.71 8.28562 114.606 8.0705 115.605 8.0705Z" fill="black"/>
<path d="M122.486 18.688V3.59448H124.714V9.94418C125.061 9.29186 125.526 8.81997 126.108 8.52851C126.705 8.22317 127.364 8.0705 128.086 8.0705C128.822 8.0705 129.481 8.21623 130.064 8.50769C130.661 8.78527 131.133 9.20858 131.48 9.77763C131.827 10.3467 132 11.0684 132 11.9428V18.688H129.773V12.6506C129.773 11.6236 129.557 10.9088 129.127 10.5063C128.711 10.1038 128.183 9.90254 127.545 9.90254C127.101 9.90254 126.657 10.0136 126.213 10.2356C125.782 10.4438 125.421 10.7908 125.13 11.2766C124.852 11.7485 124.714 12.3869 124.714 13.1919V18.688H122.486Z" fill="black"/>
<defs>
<linearGradient id="paint0_linear_1307_77797" x1="2.71291" y1="0" x2="5.46424" y2="5.41597" gradientUnits="userSpaceOnUse">
<stop stop-color="#53B194"/>
<stop offset="1" stop-color="#56C561"/>
</linearGradient>
<linearGradient id="paint1_linear_1307_77797" x1="18.961" y1="5.41589" x2="21.7123" y2="10.8319" gradientUnits="userSpaceOnUse">
<stop stop-color="#53B194"/>
<stop offset="1" stop-color="#56C561"/>
</linearGradient>
<linearGradient id="paint2_linear_1307_77797" x1="13.564" y1="0" x2="16.3153" y2="5.41597" gradientUnits="userSpaceOnUse">
<stop stop-color="#53B194"/>
<stop offset="1" stop-color="#56C561"/>
</linearGradient>
<linearGradient id="paint3_linear_1307_77797" x1="13.564" y1="10.8506" x2="16.3153" y2="16.2666" gradientUnits="userSpaceOnUse">
<stop stop-color="#53B194"/>
<stop offset="1" stop-color="#56C561"/>
</linearGradient>
<linearGradient id="paint4_linear_1307_77797" x1="18.9893" y1="16.2764" x2="21.7406" y2="21.6923" gradientUnits="userSpaceOnUse">
<stop stop-color="#53B194"/>
<stop offset="1" stop-color="#56C561"/>
</linearGradient>
<linearGradient id="paint5_linear_1307_77797" x1="18.9893" y1="16.2764" x2="21.7406" y2="21.6923" gradientUnits="userSpaceOnUse">
<stop stop-color="#53B194"/>
<stop offset="1" stop-color="#56C561"/>
</linearGradient>
<linearGradient id="paint6_linear_1307_77797" x1="2.71291" y1="10.8506" x2="9.50807" y2="17.5563" gradientUnits="userSpaceOnUse">
<stop stop-color="#53B194"/>
<stop offset="1" stop-color="#56C561"/>
</linearGradient>
<clipPath id="clip0_1307_77797">
<rect width="21.7023" height="21.7023" fill="white"/>
</clipPath>
</defs>
</svg>
