<svg width="23" height="23" viewBox="0 0 23 23" fill="none" xmlns="http://www.w3.org/2000/svg">
<path d="M14.831 5.38523L18.8613 5.38523L17.9719 6.28587C17.7623 6.4968 17.6446 6.78214 17.6446 7.07956C17.6446 7.37698 17.7623 7.66231 17.9719 7.87324C18.1829 8.08293 18.4682 8.20062 18.7656 8.20062C19.063 8.20062 19.3484 8.08293 19.5593 7.87324L22.3738 5.05875C22.5835 4.84782 22.7012 4.56248 22.7012 4.26506C22.7012 3.96764 22.5835 3.68231 22.3738 3.47137L19.5593 0.656877C19.3439 0.472442 19.0669 0.376067 18.7836 0.387011C18.5002 0.397955 18.2315 0.515412 18.031 0.715911C17.8305 0.916409 17.713 1.18518 17.7021 1.46852C17.6911 1.75185 17.7875 2.02889 17.9719 2.24425L18.8613 3.13363L14.831 3.13363C14.5324 3.13363 14.246 3.25224 14.0349 3.46337C13.8238 3.6745 13.7052 3.96085 13.7052 4.25943C13.7052 4.55801 13.8238 4.84436 14.0349 5.05549C14.246 5.26662 14.5324 5.38523 14.831 5.38523V5.38523ZM19.897 12.6354C19.6494 12.6354 19.3904 12.5566 19.1428 12.5003C18.6412 12.3897 18.1483 12.243 17.668 12.0612C17.1457 11.8712 16.5716 11.8811 16.0562 12.0889C15.5407 12.2968 15.1204 12.6879 14.876 13.187L14.6283 13.6936C13.5318 13.0836 12.5242 12.326 11.6337 11.442C10.7497 10.5515 9.99208 9.54393 9.38209 8.4474L9.85493 8.13218C10.3541 7.88779 10.7452 7.46743 10.953 6.95199C11.1609 6.43656 11.1707 5.86247 10.9807 5.3402C10.802 4.85883 10.6553 4.36615 10.5417 3.8654C10.4854 3.61773 10.4403 3.35879 10.4066 3.09986C10.2699 2.30687 9.85451 1.58875 9.23531 1.07482C8.61612 0.560888 7.83378 0.284924 7.02918 0.296622L3.65178 0.296622C3.1666 0.292066 2.68613 0.392105 2.24308 0.589927C1.80003 0.787749 1.40481 1.07871 1.08432 1.443C0.763828 1.80729 0.525591 2.23637 0.385827 2.701C0.246063 3.16564 0.208054 3.65494 0.274386 4.13559C0.874142 8.85199 3.02812 13.2342 6.39609 16.5899C9.76405 19.9456 14.154 22.0836 18.8726 22.6662L19.3004 22.6662C20.1306 22.6675 20.9321 22.3629 21.552 21.8106C21.9081 21.4921 22.1926 21.1016 22.3867 20.6649C22.5808 20.2283 22.68 19.7554 22.6778 19.2776L22.6778 15.9002C22.664 15.1182 22.3792 14.3652 21.8721 13.7698C21.3649 13.1744 20.6669 12.7734 19.897 12.6354V12.6354ZM20.4599 19.3902C20.4597 19.55 20.4255 19.708 20.3595 19.8536C20.2935 19.9991 20.1973 20.129 20.0772 20.2345C19.9514 20.3431 19.8043 20.4243 19.6453 20.4727C19.4864 20.5212 19.319 20.5359 19.154 20.516C14.9378 19.9754 11.0215 18.0465 8.02294 15.0336C5.02435 12.0208 3.11411 8.09541 2.59353 3.87666C2.57561 3.71175 2.59132 3.54492 2.63969 3.38625C2.68807 3.22758 2.76811 3.08037 2.87498 2.95351C2.98048 2.83342 3.11034 2.73717 3.25593 2.67117C3.40151 2.60518 3.55948 2.57094 3.71933 2.57073L7.09672 2.57073C7.35852 2.56491 7.61417 2.65053 7.81965 2.81286C8.02513 2.97519 8.16759 3.20407 8.22252 3.46011C8.26755 3.76783 8.32384 4.0718 8.39139 4.37201C8.52144 4.96547 8.69452 5.54867 8.90926 6.117L7.33314 6.84877C7.19838 6.9106 7.07716 6.99844 6.97644 7.10725C6.87572 7.21605 6.79749 7.34368 6.74623 7.48281C6.69497 7.62194 6.6717 7.76982 6.67775 7.91796C6.68381 8.06611 6.71906 8.2116 6.7815 8.34608C8.40175 11.8166 11.1915 14.6064 14.6621 16.2267C14.9362 16.3393 15.2436 16.3393 15.5177 16.2267C15.6581 16.1764 15.7871 16.0988 15.8973 15.9983C16.0074 15.8978 16.0965 15.7765 16.1594 15.6413L16.8574 14.0651C17.4394 14.2733 18.0334 14.4462 18.6362 14.583C18.9364 14.6505 19.2403 14.7068 19.548 14.7519C19.8041 14.8068 20.033 14.9493 20.1953 15.1547C20.3576 15.3602 20.4433 15.6159 20.4374 15.8777L20.4599 19.3902Z" fill="black"/>
</svg>
