<svg width="249" height="62" viewBox="0 0 249 62" fill="none" xmlns="http://www.w3.org/2000/svg">
<rect width="249" height="62" rx="15" fill="#F8F8F8"/>
<path d="M30.3946 17.4653C30.5873 18.1114 30.7201 18.7837 30.7864 19.4757L30.2887 19.5233C30.3194 19.8446 30.3352 20.1703 30.3352 20.5C30.3352 20.8297 30.3194 21.1554 30.2887 21.4767L30.7864 21.5243C30.7201 22.2163 30.5873 22.8886 30.3946 23.5347L29.9155 23.3917C29.7274 24.0221 29.4795 24.6263 29.1782 25.1974L29.6205 25.4307C29.2998 26.0388 28.9217 26.6112 28.4934 27.1406L28.1047 26.8262C27.6944 27.3334 27.2358 27.7991 26.7361 28.216L27.0564 28.5999C26.5325 29.0371 25.9655 29.4234 25.3628 29.7513L25.1238 29.3121C24.5562 29.6209 23.9554 29.8752 23.3284 30.0682L23.4754 30.5461C22.8305 30.7445 22.159 30.8813 21.4677 30.9496L21.4185 30.4521C21.0979 30.4838 20.7726 30.5 20.4435 30.5C20.1143 30.5 19.7891 30.4838 19.4685 30.4521L19.4193 30.9496C18.7279 30.8813 18.0564 30.7445 17.4115 30.5461L17.5586 30.0682C16.9315 29.8752 16.3308 29.6209 15.7631 29.3121L15.5242 29.7513C14.9215 29.4234 14.3544 29.0371 13.8305 28.5999L14.1509 28.216C13.6512 27.7991 13.1926 27.3334 12.7823 26.8262L12.3936 27.1406C11.9653 26.6112 11.5871 26.0388 11.2665 25.4307L11.7087 25.1975C11.4075 24.6263 11.1595 24.0221 10.9715 23.3917L10.4924 23.5347C10.2997 22.8886 10.1669 22.2163 10.1006 21.5243L10.5983 21.4767C10.5675 21.1554 10.5518 20.8297 10.5518 20.5C10.5518 20.1703 10.5675 19.8446 10.5983 19.5233L10.1006 19.4757C10.1669 18.7837 10.2997 18.1114 10.4924 17.4653L10.9715 17.6083C11.1595 16.9779 11.4075 16.3737 11.7087 15.8025L11.2665 15.5693C11.5871 14.9612 11.9653 14.3888 12.3936 13.8594L12.7823 14.1738C13.1926 13.6666 13.6512 13.2009 14.1509 12.784L13.8305 12.4001C14.3544 11.9629 14.9215 11.5766 15.5242 11.2487L15.7631 11.6879C16.3308 11.3791 16.9315 11.1248 17.5586 10.9318L17.4115 10.4539C18.0564 10.2555 18.7279 10.1187 19.4193 10.0504L19.4685 10.5479C19.7891 10.5162 20.1143 10.5 20.4435 10.5C20.7726 10.5 21.0979 10.5162 21.4185 10.5479L21.4677 10.0504C22.159 10.1187 22.8305 10.2555 23.4754 10.4539L23.3284 10.9318C23.9554 11.1248 24.5562 11.3791 25.1238 11.6879L25.3628 11.2487C25.9655 11.5766 26.5325 11.9629 27.0564 12.4001L26.7361 12.784C27.2358 13.2009 27.6944 13.6666 28.1047 14.1738L28.4934 13.8594C28.9217 14.3888 29.2998 14.9612 29.6205 15.5693L29.1782 15.8025C29.4795 16.3737 29.7274 16.9779 29.9155 17.6083L30.3946 17.4653Z" stroke="black" stroke-dasharray="2 2"/>
<ellipse cx="20.4438" cy="20.5" rx="4.4536" ry="4.5" fill="black"/>
<path d="M48.126 20.226H49.484V24.762C49.372 24.7993 49.2087 24.8413 48.994 24.888C48.7887 24.9347 48.546 24.9813 48.266 25.028C47.9953 25.0747 47.6967 25.112 47.37 25.14C47.0433 25.1773 46.712 25.196 46.376 25.196C45.6947 25.196 45.074 25.084 44.514 24.86C43.954 24.636 43.4733 24.3093 43.072 23.88C42.6707 23.4507 42.358 22.9233 42.134 22.298C41.9193 21.6727 41.812 20.954 41.812 20.142C41.812 19.33 41.9333 18.6113 42.176 17.986C42.428 17.3513 42.764 16.8193 43.184 16.39C43.604 15.9607 44.094 15.634 44.654 15.41C45.2233 15.186 45.83 15.074 46.474 15.074C46.9127 15.074 47.3 15.102 47.636 15.158C47.9813 15.214 48.2753 15.2793 48.518 15.354C48.7607 15.4287 48.9567 15.5033 49.106 15.578C49.2647 15.6527 49.372 15.7087 49.428 15.746L48.994 16.88C48.7233 16.7027 48.364 16.558 47.916 16.446C47.468 16.3247 47.0107 16.264 46.544 16.264C46.0493 16.264 45.5967 16.3527 45.186 16.53C44.7847 16.7073 44.4393 16.964 44.15 17.3C43.87 17.636 43.6507 18.0467 43.492 18.532C43.3333 19.008 43.254 19.5447 43.254 20.142C43.254 20.7207 43.3193 21.248 43.45 21.724C43.59 22.2 43.7953 22.6107 44.066 22.956C44.346 23.292 44.6867 23.5533 45.088 23.74C45.4987 23.9267 45.9793 24.02 46.53 24.02C46.922 24.02 47.2533 24.0013 47.524 23.964C47.804 23.9173 48.0047 23.8753 48.126 23.838V20.226ZM51.1203 21.374C51.1203 20.73 51.2136 20.17 51.4003 19.694C51.5869 19.2087 51.8343 18.8073 52.1423 18.49C52.4503 18.1727 52.8049 17.9347 53.2063 17.776C53.6076 17.6173 54.0183 17.538 54.4383 17.538C55.4183 17.538 56.1696 17.846 56.6923 18.462C57.2149 19.0687 57.4762 19.9973 57.4762 21.248C57.4762 21.304 57.4762 21.3787 57.4762 21.472C57.4762 21.556 57.4716 21.6353 57.4623 21.71H52.4783C52.5343 22.466 52.7536 23.04 53.1363 23.432C53.5189 23.824 54.1163 24.02 54.9283 24.02C55.3856 24.02 55.7683 23.9827 56.0763 23.908C56.3936 23.824 56.6316 23.7447 56.7903 23.67L56.9723 24.762C56.8136 24.846 56.5336 24.9347 56.1323 25.028C55.7403 25.1213 55.2923 25.168 54.7883 25.168C54.1536 25.168 53.6029 25.0747 53.1363 24.888C52.6789 24.692 52.3009 24.426 52.0023 24.09C51.7036 23.754 51.4796 23.3573 51.3302 22.9C51.1903 22.4333 51.1203 21.9247 51.1203 21.374ZM56.1183 20.66C56.1276 20.072 55.9783 19.5913 55.6703 19.218C55.3716 18.8353 54.9563 18.644 54.4243 18.644C54.1256 18.644 53.8596 18.7047 53.6263 18.826C53.4023 18.938 53.2109 19.0873 53.0523 19.274C52.8936 19.4607 52.7676 19.6753 52.6743 19.918C52.5903 20.1607 52.5343 20.408 52.5063 20.66H56.1183ZM60.5646 17.72H63.3226V18.812H60.5646V22.172C60.5646 22.536 60.5926 22.8393 60.6486 23.082C60.7046 23.3153 60.7886 23.502 60.9006 23.642C61.0126 23.7727 61.1526 23.866 61.3206 23.922C61.4886 23.978 61.6846 24.006 61.9086 24.006C62.3006 24.006 62.6132 23.964 62.8466 23.88C63.0892 23.7867 63.2572 23.7213 63.3506 23.684L63.6026 24.762C63.4719 24.8273 63.2432 24.9067 62.9166 25C62.5899 25.1027 62.2166 25.154 61.7966 25.154C61.3019 25.154 60.8912 25.0933 60.5646 24.972C60.2472 24.8413 59.9906 24.65 59.7946 24.398C59.5986 24.146 59.4586 23.838 59.3746 23.474C59.2999 23.1007 59.2626 22.6713 59.2626 22.186V15.69L60.5646 15.466V17.72ZM72.9236 19.26C72.7649 19.1293 72.5363 19.0033 72.2376 18.882C71.9389 18.7607 71.6123 18.7 71.2576 18.7C70.8843 18.7 70.5623 18.77 70.2916 18.91C70.0303 19.0407 69.8156 19.2273 69.6476 19.47C69.4796 19.7033 69.3583 19.9833 69.2836 20.31C69.2089 20.6367 69.1716 20.9867 69.1716 21.36C69.1716 22.2093 69.3816 22.8673 69.8016 23.334C70.2216 23.7913 70.7816 24.02 71.4816 24.02C71.8363 24.02 72.1303 24.006 72.3636 23.978C72.6063 23.9407 72.7929 23.9033 72.9236 23.866V19.26ZM72.9236 14.36L74.2256 14.136V24.79C73.9269 24.874 73.5443 24.958 73.0776 25.042C72.6109 25.126 72.0743 25.168 71.4676 25.168C70.9076 25.168 70.4036 25.0793 69.9556 24.902C69.5076 24.7247 69.1249 24.4727 68.8076 24.146C68.4903 23.8193 68.2429 23.4227 68.0656 22.956C67.8976 22.48 67.8136 21.948 67.8136 21.36C67.8136 20.8 67.8836 20.2867 68.0236 19.82C68.1729 19.3533 68.3876 18.952 68.6676 18.616C68.9476 18.28 69.2883 18.0187 69.6896 17.832C70.1003 17.6453 70.5669 17.552 71.0896 17.552C71.5096 17.552 71.8783 17.608 72.1956 17.72C72.5223 17.832 72.7649 17.9393 72.9236 18.042V14.36ZM76.0578 21.374C76.0578 20.73 76.1511 20.17 76.3378 19.694C76.5244 19.2087 76.7718 18.8073 77.0798 18.49C77.3878 18.1727 77.7424 17.9347 78.1438 17.776C78.5451 17.6173 78.9558 17.538 79.3758 17.538C80.3558 17.538 81.1071 17.846 81.6298 18.462C82.1524 19.0687 82.4137 19.9973 82.4137 21.248C82.4137 21.304 82.4137 21.3787 82.4137 21.472C82.4137 21.556 82.4091 21.6353 82.3998 21.71H77.4158C77.4718 22.466 77.6911 23.04 78.0738 23.432C78.4564 23.824 79.0538 24.02 79.8658 24.02C80.3231 24.02 80.7058 23.9827 81.0138 23.908C81.3311 23.824 81.5691 23.7447 81.7278 23.67L81.9098 24.762C81.7511 24.846 81.4711 24.9347 81.0698 25.028C80.6778 25.1213 80.2298 25.168 79.7258 25.168C79.0911 25.168 78.5404 25.0747 78.0738 24.888C77.6164 24.692 77.2384 24.426 76.9398 24.09C76.6411 23.754 76.4171 23.3573 76.2677 22.9C76.1278 22.4333 76.0578 21.9247 76.0578 21.374ZM81.0558 20.66C81.0651 20.072 80.9158 19.5913 80.6078 19.218C80.3091 18.8353 79.8938 18.644 79.3618 18.644C79.0631 18.644 78.7971 18.7047 78.5638 18.826C78.3398 18.938 78.1484 19.0873 77.9898 19.274C77.8311 19.4607 77.7051 19.6753 77.6118 19.918C77.5278 20.1607 77.4718 20.408 77.4438 20.66H81.0558ZM89.9681 17.72C89.6041 19.0827 89.1747 20.3893 88.6801 21.64C88.1947 22.8907 87.7234 24.0107 87.2661 25H86.0901C85.6327 24.0107 85.1567 22.8907 84.6621 21.64C84.1767 20.3893 83.7521 19.0827 83.3881 17.72H84.7881C84.9001 18.1773 85.0307 18.6673 85.1801 19.19C85.3387 19.7033 85.5021 20.2167 85.6701 20.73C85.8474 21.234 86.0247 21.724 86.2021 22.2C86.3794 22.676 86.5474 23.1007 86.7061 23.474C86.8647 23.1007 87.0327 22.676 87.2101 22.2C87.3874 21.724 87.5601 21.234 87.7281 20.73C87.9054 20.2167 88.0687 19.7033 88.2181 19.19C88.3767 18.6673 88.5121 18.1773 88.6241 17.72H89.9681ZM90.714 21.374C90.714 20.73 90.8073 20.17 90.994 19.694C91.1807 19.2087 91.428 18.8073 91.736 18.49C92.044 18.1727 92.3987 17.9347 92.8 17.776C93.2013 17.6173 93.612 17.538 94.032 17.538C95.012 17.538 95.7633 17.846 96.286 18.462C96.8087 19.0687 97.07 19.9973 97.07 21.248C97.07 21.304 97.07 21.3787 97.07 21.472C97.07 21.556 97.0653 21.6353 97.056 21.71H92.072C92.128 22.466 92.3473 23.04 92.73 23.432C93.1127 23.824 93.71 24.02 94.522 24.02C94.9793 24.02 95.362 23.9827 95.67 23.908C95.9873 23.824 96.2253 23.7447 96.384 23.67L96.566 24.762C96.4073 24.846 96.1273 24.9347 95.726 25.028C95.334 25.1213 94.886 25.168 94.382 25.168C93.7473 25.168 93.1967 25.0747 92.73 24.888C92.2727 24.692 91.8947 24.426 91.596 24.09C91.2973 23.754 91.0733 23.3573 90.924 22.9C90.784 22.4333 90.714 21.9247 90.714 21.374ZM95.712 20.66C95.7213 20.072 95.572 19.5913 95.264 19.218C94.9653 18.8353 94.55 18.644 94.018 18.644C93.7193 18.644 93.4533 18.7047 93.22 18.826C92.996 18.938 92.8047 19.0873 92.646 19.274C92.4873 19.4607 92.3613 19.6753 92.268 19.918C92.184 20.1607 92.128 20.408 92.1 20.66H95.712ZM101.124 25.14C100.322 25.1213 99.7523 24.9487 99.4163 24.622C99.0803 24.2953 98.9123 23.7867 98.9123 23.096V14.36L100.214 14.136V22.886C100.214 23.1007 100.233 23.278 100.27 23.418C100.308 23.558 100.368 23.67 100.452 23.754C100.536 23.838 100.648 23.9033 100.788 23.95C100.928 23.9873 101.101 24.02 101.306 24.048L101.124 25.14ZM109.194 21.36C109.194 21.9387 109.11 22.4613 108.942 22.928C108.774 23.3947 108.536 23.796 108.228 24.132C107.93 24.468 107.57 24.7293 107.15 24.916C106.73 25.0933 106.273 25.182 105.778 25.182C105.284 25.182 104.826 25.0933 104.406 24.916C103.986 24.7293 103.622 24.468 103.314 24.132C103.016 23.796 102.782 23.3947 102.614 22.928C102.446 22.4613 102.362 21.9387 102.362 21.36C102.362 20.7907 102.446 20.2727 102.614 19.806C102.782 19.33 103.016 18.924 103.314 18.588C103.622 18.252 103.986 17.9953 104.406 17.818C104.826 17.6313 105.284 17.538 105.778 17.538C106.273 17.538 106.73 17.6313 107.15 17.818C107.57 17.9953 107.93 18.252 108.228 18.588C108.536 18.924 108.774 19.33 108.942 19.806C109.11 20.2727 109.194 20.7907 109.194 21.36ZM107.836 21.36C107.836 20.5387 107.65 19.89 107.276 19.414C106.912 18.9287 106.413 18.686 105.778 18.686C105.144 18.686 104.64 18.9287 104.266 19.414C103.902 19.89 103.72 20.5387 103.72 21.36C103.72 22.1813 103.902 22.8347 104.266 23.32C104.64 23.796 105.144 24.034 105.778 24.034C106.413 24.034 106.912 23.796 107.276 23.32C107.65 22.8347 107.836 22.1813 107.836 21.36ZM116.08 21.374C116.08 20.5247 115.87 19.8713 115.45 19.414C115.03 18.9567 114.47 18.728 113.77 18.728C113.378 18.728 113.07 18.742 112.846 18.77C112.632 18.798 112.459 18.8307 112.328 18.868V23.46C112.487 23.5907 112.716 23.7167 113.014 23.838C113.313 23.9593 113.64 24.02 113.994 24.02C114.368 24.02 114.685 23.9547 114.946 23.824C115.217 23.684 115.436 23.4973 115.604 23.264C115.772 23.0213 115.894 22.7413 115.968 22.424C116.043 22.0973 116.08 21.7473 116.08 21.374ZM117.438 21.374C117.438 21.9247 117.364 22.4333 117.214 22.9C117.074 23.3667 116.864 23.768 116.584 24.104C116.304 24.44 115.959 24.7013 115.548 24.888C115.147 25.0747 114.685 25.168 114.162 25.168C113.742 25.168 113.369 25.112 113.042 25C112.725 24.888 112.487 24.7807 112.328 24.678V27.59H111.026V17.944C111.334 17.8693 111.717 17.79 112.174 17.706C112.641 17.6127 113.178 17.566 113.784 17.566C114.344 17.566 114.848 17.6547 115.296 17.832C115.744 18.0093 116.127 18.2613 116.444 18.588C116.762 18.9147 117.004 19.316 117.172 19.792C117.35 20.2587 117.438 20.786 117.438 21.374ZM118.864 21.374C118.864 20.73 118.958 20.17 119.144 19.694C119.331 19.2087 119.578 18.8073 119.886 18.49C120.194 18.1727 120.549 17.9347 120.95 17.776C121.352 17.6173 121.762 17.538 122.182 17.538C123.162 17.538 123.914 17.846 124.436 18.462C124.959 19.0687 125.22 19.9973 125.22 21.248C125.22 21.304 125.22 21.3787 125.22 21.472C125.22 21.556 125.216 21.6353 125.206 21.71H120.222C120.278 22.466 120.498 23.04 120.88 23.432C121.263 23.824 121.86 24.02 122.672 24.02C123.13 24.02 123.512 23.9827 123.82 23.908C124.138 23.824 124.376 23.7447 124.534 23.67L124.716 24.762C124.558 24.846 124.278 24.9347 123.876 25.028C123.484 25.1213 123.036 25.168 122.532 25.168C121.898 25.168 121.347 25.0747 120.88 24.888C120.423 24.692 120.045 24.426 119.746 24.09C119.448 23.754 119.224 23.3573 119.074 22.9C118.934 22.4333 118.864 21.9247 118.864 21.374ZM123.862 20.66C123.872 20.072 123.722 19.5913 123.414 19.218C123.116 18.8353 122.7 18.644 122.168 18.644C121.87 18.644 121.604 18.7047 121.37 18.826C121.146 18.938 120.955 19.0873 120.796 19.274C120.638 19.4607 120.512 19.6753 120.418 19.918C120.334 20.1607 120.278 20.408 120.25 20.66H123.862ZM129.779 17.566C129.891 17.566 130.017 17.5753 130.157 17.594C130.306 17.6033 130.451 17.622 130.591 17.65C130.731 17.6687 130.857 17.692 130.969 17.72C131.09 17.7387 131.179 17.7573 131.235 17.776L131.011 18.91C130.908 18.8727 130.735 18.8307 130.493 18.784C130.259 18.728 129.956 18.7 129.583 18.7C129.34 18.7 129.097 18.728 128.855 18.784C128.621 18.8307 128.467 18.8633 128.393 18.882V25H127.091V18.028C127.399 17.916 127.781 17.8133 128.239 17.72C128.696 17.6173 129.209 17.566 129.779 17.566ZM134.185 24.062C134.717 24.062 135.109 23.992 135.361 23.852C135.622 23.712 135.753 23.488 135.753 23.18C135.753 22.8627 135.627 22.6107 135.375 22.424C135.123 22.2373 134.708 22.0273 134.129 21.794C133.849 21.682 133.578 21.57 133.317 21.458C133.065 21.3367 132.846 21.1967 132.659 21.038C132.472 20.8793 132.323 20.688 132.211 20.464C132.099 20.24 132.043 19.9647 132.043 19.638C132.043 18.994 132.281 18.4853 132.757 18.112C133.233 17.7293 133.882 17.538 134.703 17.538C134.908 17.538 135.114 17.552 135.319 17.58C135.524 17.5987 135.716 17.6267 135.893 17.664C136.07 17.692 136.224 17.7247 136.355 17.762C136.495 17.7993 136.602 17.832 136.677 17.86L136.439 18.98C136.299 18.9053 136.08 18.8307 135.781 18.756C135.482 18.672 135.123 18.63 134.703 18.63C134.339 18.63 134.022 18.7047 133.751 18.854C133.48 18.994 133.345 19.218 133.345 19.526C133.345 19.6847 133.373 19.8247 133.429 19.946C133.494 20.0673 133.588 20.1793 133.709 20.282C133.84 20.3753 133.998 20.464 134.185 20.548C134.372 20.632 134.596 20.7207 134.857 20.814C135.202 20.9447 135.51 21.0753 135.781 21.206C136.052 21.3273 136.28 21.472 136.467 21.64C136.663 21.808 136.812 22.0133 136.915 22.256C137.018 22.4893 137.069 22.7787 137.069 23.124C137.069 23.796 136.817 24.3047 136.313 24.65C135.818 24.9953 135.109 25.168 134.185 25.168C133.541 25.168 133.037 25.112 132.673 25C132.309 24.8973 132.062 24.818 131.931 24.762L132.169 23.642C132.318 23.698 132.556 23.782 132.883 23.894C133.21 24.006 133.644 24.062 134.185 24.062ZM144.821 14.136C145.204 14.136 145.531 14.164 145.801 14.22C146.081 14.276 146.277 14.3273 146.389 14.374L146.151 15.494C146.039 15.438 145.881 15.3867 145.675 15.34C145.47 15.284 145.218 15.256 144.919 15.256C144.313 15.256 143.888 15.424 143.645 15.76C143.403 16.0867 143.281 16.53 143.281 17.09V17.72H146.081V18.812H143.281V25H141.979V17.062C141.979 16.1287 142.208 15.41 142.665 14.906C143.123 14.3927 143.841 14.136 144.821 14.136ZM150.068 17.566C150.18 17.566 150.306 17.5753 150.446 17.594C150.595 17.6033 150.74 17.622 150.88 17.65C151.02 17.6687 151.146 17.692 151.258 17.72C151.379 17.7387 151.468 17.7573 151.524 17.776L151.3 18.91C151.197 18.8727 151.024 18.8307 150.782 18.784C150.548 18.728 150.245 18.7 149.872 18.7C149.629 18.7 149.386 18.728 149.144 18.784C148.91 18.8307 148.756 18.8633 148.682 18.882V25H147.38V18.028C147.688 17.916 148.07 17.8133 148.528 17.72C148.985 17.6173 149.498 17.566 150.068 17.566ZM159.206 21.36C159.206 21.9387 159.122 22.4613 158.954 22.928C158.786 23.3947 158.548 23.796 158.24 24.132C157.941 24.468 157.582 24.7293 157.162 24.916C156.742 25.0933 156.285 25.182 155.79 25.182C155.295 25.182 154.838 25.0933 154.418 24.916C153.998 24.7293 153.634 24.468 153.326 24.132C153.027 23.796 152.794 23.3947 152.626 22.928C152.458 22.4613 152.374 21.9387 152.374 21.36C152.374 20.7907 152.458 20.2727 152.626 19.806C152.794 19.33 153.027 18.924 153.326 18.588C153.634 18.252 153.998 17.9953 154.418 17.818C154.838 17.6313 155.295 17.538 155.79 17.538C156.285 17.538 156.742 17.6313 157.162 17.818C157.582 17.9953 157.941 18.252 158.24 18.588C158.548 18.924 158.786 19.33 158.954 19.806C159.122 20.2727 159.206 20.7907 159.206 21.36ZM157.848 21.36C157.848 20.5387 157.661 19.89 157.288 19.414C156.924 18.9287 156.425 18.686 155.79 18.686C155.155 18.686 154.651 18.9287 154.278 19.414C153.914 19.89 153.732 20.5387 153.732 21.36C153.732 22.1813 153.914 22.8347 154.278 23.32C154.651 23.796 155.155 24.034 155.79 24.034C156.425 24.034 156.924 23.796 157.288 23.32C157.661 22.8347 157.848 22.1813 157.848 21.36ZM161.038 17.93C161.337 17.8553 161.729 17.776 162.214 17.692C162.709 17.608 163.278 17.566 163.922 17.566C164.389 17.566 164.781 17.6313 165.098 17.762C165.415 17.8833 165.681 18.0653 165.896 18.308C165.961 18.2613 166.064 18.196 166.204 18.112C166.344 18.028 166.517 17.9487 166.722 17.874C166.927 17.79 167.156 17.72 167.408 17.664C167.66 17.5987 167.931 17.566 168.22 17.566C168.78 17.566 169.237 17.65 169.592 17.818C169.947 17.9767 170.222 18.2053 170.418 18.504C170.623 18.8027 170.759 19.1573 170.824 19.568C170.899 19.9787 170.936 20.4267 170.936 20.912V25H169.634V21.192C169.634 20.7627 169.611 20.394 169.564 20.086C169.527 19.778 169.447 19.5213 169.326 19.316C169.214 19.1107 169.055 18.9613 168.85 18.868C168.654 18.7653 168.397 18.714 168.08 18.714C167.641 18.714 167.277 18.7747 166.988 18.896C166.708 19.008 166.517 19.1107 166.414 19.204C166.489 19.4467 166.545 19.7127 166.582 20.002C166.619 20.2913 166.638 20.5947 166.638 20.912V25H165.336V21.192C165.336 20.7627 165.313 20.394 165.266 20.086C165.219 19.778 165.135 19.5213 165.014 19.316C164.902 19.1107 164.743 18.9613 164.538 18.868C164.342 18.7653 164.09 18.714 163.782 18.714C163.651 18.714 163.511 18.7187 163.362 18.728C163.213 18.7373 163.068 18.7513 162.928 18.77C162.797 18.7793 162.676 18.7933 162.564 18.812C162.452 18.8307 162.377 18.8447 162.34 18.854V25H161.038V17.93ZM177.639 18.042C177.797 17.9393 178.035 17.832 178.353 17.72C178.679 17.608 179.053 17.552 179.473 17.552C179.995 17.552 180.457 17.6453 180.859 17.832C181.269 18.0187 181.615 18.28 181.895 18.616C182.175 18.952 182.385 19.3533 182.525 19.82C182.674 20.2867 182.749 20.8 182.749 21.36C182.749 21.948 182.66 22.48 182.483 22.956C182.315 23.4227 182.072 23.8193 181.755 24.146C181.437 24.4727 181.055 24.7247 180.607 24.902C180.159 25.0793 179.655 25.168 179.095 25.168C178.488 25.168 177.951 25.126 177.485 25.042C177.018 24.958 176.635 24.874 176.337 24.79V14.36L177.639 14.136V18.042ZM177.639 23.866C177.769 23.9033 177.951 23.9407 178.185 23.978C178.427 24.006 178.726 24.02 179.081 24.02C179.781 24.02 180.341 23.7913 180.761 23.334C181.181 22.8673 181.391 22.2093 181.391 21.36C181.391 20.9867 181.353 20.6367 181.279 20.31C181.204 19.9833 181.083 19.7033 180.915 19.47C180.747 19.2273 180.527 19.0407 180.257 18.91C179.995 18.77 179.678 18.7 179.305 18.7C178.95 18.7 178.623 18.7607 178.325 18.882C178.026 19.0033 177.797 19.1293 177.639 19.26V23.866ZM184.175 21.374C184.175 20.73 184.268 20.17 184.455 19.694C184.642 19.2087 184.889 18.8073 185.197 18.49C185.505 18.1727 185.86 17.9347 186.261 17.776C186.662 17.6173 187.073 17.538 187.493 17.538C188.473 17.538 189.224 17.846 189.747 18.462C190.27 19.0687 190.531 19.9973 190.531 21.248C190.531 21.304 190.531 21.3787 190.531 21.472C190.531 21.556 190.526 21.6353 190.517 21.71H185.533C185.589 22.466 185.808 23.04 186.191 23.432C186.574 23.824 187.171 24.02 187.983 24.02C188.44 24.02 188.823 23.9827 189.131 23.908C189.448 23.824 189.686 23.7447 189.845 23.67L190.027 24.762C189.868 24.846 189.588 24.9347 189.187 25.028C188.795 25.1213 188.347 25.168 187.843 25.168C187.208 25.168 186.658 25.0747 186.191 24.888C185.734 24.692 185.356 24.426 185.057 24.09C184.758 23.754 184.534 23.3573 184.385 22.9C184.245 22.4333 184.175 21.9247 184.175 21.374ZM189.173 20.66C189.182 20.072 189.033 19.5913 188.725 19.218C188.426 18.8353 188.011 18.644 187.479 18.644C187.18 18.644 186.914 18.7047 186.681 18.826C186.457 18.938 186.266 19.0873 186.107 19.274C185.948 19.4607 185.822 19.6753 185.729 19.918C185.645 20.1607 185.589 20.408 185.561 20.66H189.173ZM192.401 17.93C192.7 17.8553 193.097 17.776 193.591 17.692C194.086 17.608 194.655 17.566 195.299 17.566C195.878 17.566 196.359 17.65 196.741 17.818C197.124 17.9767 197.427 18.2053 197.651 18.504C197.885 18.7933 198.048 19.1433 198.141 19.554C198.235 19.9647 198.281 20.4173 198.281 20.912V25H196.979V21.192C196.979 20.744 196.947 20.3613 196.881 20.044C196.825 19.7267 196.727 19.47 196.587 19.274C196.447 19.078 196.261 18.938 196.027 18.854C195.794 18.7607 195.505 18.714 195.159 18.714C195.019 18.714 194.875 18.7187 194.725 18.728C194.576 18.7373 194.431 18.7513 194.291 18.77C194.161 18.7793 194.039 18.7933 193.927 18.812C193.825 18.8307 193.75 18.8447 193.703 18.854V25H192.401V17.93ZM203.604 25.168C203.016 25.168 202.498 25.0747 202.05 24.888C201.612 24.7013 201.238 24.44 200.93 24.104C200.632 23.768 200.408 23.3713 200.258 22.914C200.109 22.4473 200.034 21.934 200.034 21.374C200.034 20.814 200.114 20.3007 200.272 19.834C200.44 19.3673 200.674 18.966 200.972 18.63C201.271 18.2847 201.635 18.0187 202.064 17.832C202.503 17.636 202.988 17.538 203.52 17.538C203.847 17.538 204.174 17.566 204.5 17.622C204.827 17.678 205.14 17.7667 205.438 17.888L205.144 18.994C204.948 18.9007 204.72 18.826 204.458 18.77C204.206 18.714 203.936 18.686 203.646 18.686C202.918 18.686 202.358 18.9147 201.966 19.372C201.584 19.8293 201.392 20.4967 201.392 21.374C201.392 21.766 201.434 22.1253 201.518 22.452C201.612 22.7787 201.752 23.0587 201.938 23.292C202.134 23.5253 202.382 23.7073 202.68 23.838C202.979 23.9593 203.343 24.02 203.772 24.02C204.118 24.02 204.43 23.9873 204.71 23.922C204.99 23.8567 205.21 23.7867 205.368 23.712L205.55 24.804C205.476 24.8507 205.368 24.8973 205.228 24.944C205.088 24.9813 204.93 25.014 204.752 25.042C204.575 25.0793 204.384 25.1073 204.178 25.126C203.982 25.154 203.791 25.168 203.604 25.168ZM206.948 25V14.36L208.25 14.136V17.86C208.493 17.7667 208.749 17.6967 209.02 17.65C209.3 17.594 209.575 17.566 209.846 17.566C210.425 17.566 210.905 17.65 211.288 17.818C211.671 17.9767 211.974 18.2053 212.198 18.504C212.431 18.7933 212.595 19.1433 212.688 19.554C212.781 19.9647 212.828 20.4173 212.828 20.912V25H211.526V21.192C211.526 20.744 211.493 20.3613 211.428 20.044C211.372 19.7267 211.274 19.47 211.134 19.274C210.994 19.078 210.807 18.938 210.574 18.854C210.341 18.7607 210.051 18.714 209.706 18.714C209.566 18.714 209.421 18.7233 209.272 18.742C209.123 18.7607 208.978 18.784 208.838 18.812C208.707 18.8307 208.586 18.854 208.474 18.882C208.371 18.91 208.297 18.9333 208.25 18.952V25H206.948ZM224.612 21.36C224.612 21.9387 224.528 22.4613 224.36 22.928C224.192 23.3947 223.954 23.796 223.646 24.132C223.348 24.468 222.988 24.7293 222.568 24.916C222.148 25.0933 221.691 25.182 221.196 25.182C220.702 25.182 220.244 25.0933 219.824 24.916C219.404 24.7293 219.04 24.468 218.732 24.132C218.434 23.796 218.2 23.3947 218.032 22.928C217.864 22.4613 217.78 21.9387 217.78 21.36C217.78 20.7907 217.864 20.2727 218.032 19.806C218.2 19.33 218.434 18.924 218.732 18.588C219.04 18.252 219.404 17.9953 219.824 17.818C220.244 17.6313 220.702 17.538 221.196 17.538C221.691 17.538 222.148 17.6313 222.568 17.818C222.988 17.9953 223.348 18.252 223.646 18.588C223.954 18.924 224.192 19.33 224.36 19.806C224.528 20.2727 224.612 20.7907 224.612 21.36ZM223.254 21.36C223.254 20.5387 223.068 19.89 222.694 19.414C222.33 18.9287 221.831 18.686 221.196 18.686C220.562 18.686 220.058 18.9287 219.684 19.414C219.32 19.89 219.138 20.5387 219.138 21.36C219.138 22.1813 219.32 22.8347 219.684 23.32C220.058 23.796 220.562 24.034 221.196 24.034C221.831 24.034 222.33 23.796 222.694 23.32C223.068 22.8347 223.254 22.1813 223.254 21.36ZM229.132 17.566C229.244 17.566 229.37 17.5753 229.51 17.594C229.66 17.6033 229.804 17.622 229.944 17.65C230.084 17.6687 230.21 17.692 230.322 17.72C230.444 17.7387 230.532 17.7573 230.588 17.776L230.364 18.91C230.262 18.8727 230.089 18.8307 229.846 18.784C229.613 18.728 229.31 18.7 228.936 18.7C228.694 18.7 228.451 18.728 228.208 18.784C227.975 18.8307 227.821 18.8633 227.746 18.882V25H226.444V18.028C226.752 17.916 227.135 17.8133 227.592 17.72C228.05 17.6173 228.563 17.566 229.132 17.566ZM44.808 37.566C44.92 37.566 45.046 37.5753 45.186 37.594C45.3353 37.6033 45.48 37.622 45.62 37.65C45.76 37.6687 45.886 37.692 45.998 37.72C46.1193 37.7387 46.208 37.7573 46.264 37.776L46.04 38.91C45.9373 38.8727 45.7647 38.8307 45.522 38.784C45.2887 38.728 44.9853 38.7 44.612 38.7C44.3693 38.7 44.1267 38.728 43.884 38.784C43.6507 38.8307 43.4967 38.8633 43.422 38.882V45H42.12V38.028C42.428 37.916 42.8107 37.8133 43.268 37.72C43.7253 37.6173 44.2387 37.566 44.808 37.566ZM47.1144 41.374C47.1144 40.73 47.2077 40.17 47.3944 39.694C47.5811 39.2087 47.8284 38.8073 48.1364 38.49C48.4444 38.1727 48.7991 37.9347 49.2004 37.776C49.6017 37.6173 50.0124 37.538 50.4324 37.538C51.4124 37.538 52.1637 37.846 52.6864 38.462C53.2091 39.0687 53.4704 39.9973 53.4704 41.248C53.4704 41.304 53.4704 41.3787 53.4704 41.472C53.4704 41.556 53.4657 41.6353 53.4564 41.71H48.4724C48.5284 42.466 48.7477 43.04 49.1304 43.432C49.5131 43.824 50.1104 44.02 50.9224 44.02C51.3797 44.02 51.7624 43.9827 52.0704 43.908C52.3877 43.824 52.6257 43.7447 52.7844 43.67L52.9664 44.762C52.8077 44.846 52.5277 44.9347 52.1264 45.028C51.7344 45.1213 51.2864 45.168 50.7824 45.168C50.1477 45.168 49.5971 45.0747 49.1304 44.888C48.6731 44.692 48.2951 44.426 47.9964 44.09C47.6977 43.754 47.4737 43.3573 47.3244 42.9C47.1844 42.4333 47.1144 41.9247 47.1144 41.374ZM52.1124 40.66C52.1217 40.072 51.9724 39.5913 51.6644 39.218C51.3657 38.8353 50.9504 38.644 50.4184 38.644C50.1197 38.644 49.8537 38.7047 49.6204 38.826C49.3964 38.938 49.2051 39.0873 49.0464 39.274C48.8877 39.4607 48.7617 39.6753 48.6684 39.918C48.5844 40.1607 48.5284 40.408 48.5004 40.66H52.1124ZM58.5047 45.168C57.9167 45.168 57.3987 45.0747 56.9507 44.888C56.512 44.7013 56.1387 44.44 55.8307 44.104C55.532 43.768 55.308 43.3713 55.1587 42.914C55.0094 42.4473 54.9347 41.934 54.9347 41.374C54.9347 40.814 55.014 40.3007 55.1727 39.834C55.3407 39.3673 55.574 38.966 55.8727 38.63C56.1714 38.2847 56.5354 38.0187 56.9647 37.832C57.4034 37.636 57.8887 37.538 58.4207 37.538C58.7474 37.538 59.074 37.566 59.4007 37.622C59.7274 37.678 60.04 37.7667 60.3387 37.888L60.0447 38.994C59.8487 38.9007 59.62 38.826 59.3587 38.77C59.1067 38.714 58.836 38.686 58.5467 38.686C57.8187 38.686 57.2587 38.9147 56.8667 39.372C56.484 39.8293 56.2927 40.4967 56.2927 41.374C56.2927 41.766 56.3347 42.1253 56.4187 42.452C56.512 42.7787 56.652 43.0587 56.8387 43.292C57.0347 43.5253 57.282 43.7073 57.5807 43.838C57.8794 43.9593 58.2434 44.02 58.6727 44.02C59.018 44.02 59.3307 43.9873 59.6107 43.922C59.8907 43.8567 60.11 43.7867 60.2687 43.712L60.4507 44.804C60.376 44.8507 60.2687 44.8973 60.1287 44.944C59.9887 44.9813 59.83 45.014 59.6527 45.042C59.4754 45.0793 59.284 45.1073 59.0787 45.126C58.8827 45.154 58.6914 45.168 58.5047 45.168ZM64.5365 37.566C64.6485 37.566 64.7745 37.5753 64.9145 37.594C65.0638 37.6033 65.2085 37.622 65.3485 37.65C65.4885 37.6687 65.6145 37.692 65.7265 37.72C65.8478 37.7387 65.9365 37.7573 65.9925 37.776L65.7685 38.91C65.6658 38.8727 65.4932 38.8307 65.2505 38.784C65.0172 38.728 64.7138 38.7 64.3405 38.7C64.0978 38.7 63.8552 38.728 63.6125 38.784C63.3792 38.8307 63.2252 38.8633 63.1505 38.882V45H61.8485V38.028C62.1565 37.916 62.5392 37.8133 62.9965 37.72C63.4538 37.6173 63.9672 37.566 64.5365 37.566ZM73.0449 44.79C72.7462 44.8647 72.3496 44.944 71.8549 45.028C71.3696 45.112 70.8049 45.154 70.1609 45.154C69.6009 45.154 69.1296 45.0747 68.7469 44.916C68.3642 44.748 68.0562 44.5147 67.8229 44.216C67.5896 43.9173 67.4216 43.5673 67.3189 43.166C67.2162 42.7553 67.1649 42.3027 67.1649 41.808V37.72H68.4669V41.528C68.4669 42.4147 68.6069 43.0493 68.8869 43.432C69.1669 43.8147 69.6382 44.006 70.3009 44.006C70.4409 44.006 70.5856 44.0013 70.7349 43.992C70.8842 43.9827 71.0242 43.9733 71.1549 43.964C71.2856 43.9453 71.4022 43.9313 71.5049 43.922C71.6169 43.9033 71.6962 43.8847 71.7429 43.866V37.72H73.0449V44.79ZM76.59 45H75.288V37.72H76.59V45ZM75.932 36.404C75.6986 36.404 75.498 36.3293 75.33 36.18C75.1713 36.0213 75.092 35.8113 75.092 35.55C75.092 35.2887 75.1713 35.0833 75.33 34.934C75.498 34.7753 75.6986 34.696 75.932 34.696C76.1653 34.696 76.3613 34.7753 76.52 34.934C76.688 35.0833 76.772 35.2887 76.772 35.55C76.772 35.8113 76.688 36.0213 76.52 36.18C76.3613 36.3293 76.1653 36.404 75.932 36.404ZM80.047 37.72H82.805V38.812H80.047V42.172C80.047 42.536 80.075 42.8393 80.131 43.082C80.187 43.3153 80.271 43.502 80.383 43.642C80.495 43.7727 80.635 43.866 80.803 43.922C80.971 43.978 81.167 44.006 81.391 44.006C81.783 44.006 82.0957 43.964 82.329 43.88C82.5717 43.7867 82.7397 43.7213 82.833 43.684L83.085 44.762C82.9543 44.8273 82.7257 44.9067 82.399 45C82.0723 45.1027 81.699 45.154 81.279 45.154C80.7843 45.154 80.3737 45.0933 80.047 44.972C79.7297 44.8413 79.473 44.65 79.277 44.398C79.081 44.146 78.941 43.838 78.857 43.474C78.7823 43.1007 78.745 42.6713 78.745 42.186V35.69L80.047 35.466V37.72ZM87.702 37.93C88.0007 37.8553 88.3974 37.776 88.892 37.692C89.3867 37.608 89.956 37.566 90.6 37.566C91.1787 37.566 91.6594 37.65 92.042 37.818C92.4247 37.9767 92.728 38.2053 92.952 38.504C93.1854 38.7933 93.3487 39.1433 93.442 39.554C93.5354 39.9647 93.582 40.4173 93.582 40.912V45H92.28V41.192C92.28 40.744 92.2474 40.3613 92.182 40.044C92.126 39.7267 92.028 39.47 91.888 39.274C91.748 39.078 91.5614 38.938 91.328 38.854C91.0947 38.7607 90.8054 38.714 90.46 38.714C90.32 38.714 90.1754 38.7187 90.026 38.728C89.8767 38.7373 89.732 38.7513 89.592 38.77C89.4614 38.7793 89.34 38.7933 89.228 38.812C89.1254 38.8307 89.0507 38.8447 89.004 38.854V45H87.702V37.93ZM95.3351 41.374C95.3351 40.73 95.4284 40.17 95.6151 39.694C95.8018 39.2087 96.0491 38.8073 96.3571 38.49C96.6651 38.1727 97.0198 37.9347 97.4211 37.776C97.8224 37.6173 98.2331 37.538 98.6531 37.538C99.6331 37.538 100.384 37.846 100.907 38.462C101.43 39.0687 101.691 39.9973 101.691 41.248C101.691 41.304 101.691 41.3787 101.691 41.472C101.691 41.556 101.686 41.6353 101.677 41.71H96.6931C96.7491 42.466 96.9684 43.04 97.3511 43.432C97.7338 43.824 98.3311 44.02 99.1431 44.02C99.6004 44.02 99.9831 43.9827 100.291 43.908C100.608 43.824 100.846 43.7447 101.005 43.67L101.187 44.762C101.028 44.846 100.748 44.9347 100.347 45.028C99.9551 45.1213 99.5071 45.168 99.0031 45.168C98.3684 45.168 97.8178 45.0747 97.3511 44.888C96.8938 44.692 96.5158 44.426 96.2171 44.09C95.9184 43.754 95.6944 43.3573 95.5451 42.9C95.4051 42.4333 95.3351 41.9247 95.3351 41.374ZM100.333 40.66C100.342 40.072 100.193 39.5913 99.8851 39.218C99.5864 38.8353 99.1711 38.644 98.6391 38.644C98.3404 38.644 98.0744 38.7047 97.8411 38.826C97.6171 38.938 97.4258 39.0873 97.2671 39.274C97.1084 39.4607 96.9824 39.6753 96.8891 39.918C96.8051 40.1607 96.7491 40.408 96.7211 40.66H100.333ZM109.511 45C109.25 44.328 108.97 43.5627 108.671 42.704C108.382 41.836 108.116 40.9353 107.873 40.002C107.631 40.9353 107.365 41.836 107.075 42.704C106.786 43.5627 106.511 44.328 106.249 45H105.115C104.686 44.0387 104.266 42.942 103.855 41.71C103.445 40.478 103.057 39.148 102.693 37.72H104.093C104.187 38.1587 104.299 38.6347 104.429 39.148C104.56 39.6613 104.695 40.1747 104.835 40.688C104.985 41.2013 105.139 41.696 105.297 42.172C105.456 42.648 105.605 43.0633 105.745 43.418C105.904 42.9793 106.058 42.5173 106.207 42.032C106.366 41.5373 106.515 41.0427 106.655 40.548C106.795 40.044 106.926 39.554 107.047 39.078C107.178 38.5927 107.29 38.14 107.383 37.72H108.461C108.545 38.14 108.648 38.5927 108.769 39.078C108.891 39.554 109.021 40.044 109.161 40.548C109.301 41.0427 109.446 41.5373 109.595 42.032C109.754 42.5173 109.913 42.9793 110.071 43.418C110.211 43.0633 110.356 42.648 110.505 42.172C110.664 41.696 110.818 41.2013 110.967 40.688C111.117 40.1747 111.257 39.6613 111.387 39.148C111.518 38.6347 111.63 38.1587 111.723 37.72H113.067C112.703 39.148 112.316 40.478 111.905 41.71C111.495 42.942 111.075 44.0387 110.645 45H109.511ZM118.902 37.72H121.66V38.812H118.902V42.172C118.902 42.536 118.93 42.8393 118.986 43.082C119.042 43.3153 119.126 43.502 119.238 43.642C119.35 43.7727 119.49 43.866 119.658 43.922C119.826 43.978 120.022 44.006 120.246 44.006C120.638 44.006 120.951 43.964 121.184 43.88C121.427 43.7867 121.595 43.7213 121.688 43.684L121.94 44.762C121.81 44.8273 121.581 44.9067 121.254 45C120.928 45.1027 120.554 45.154 120.134 45.154C119.64 45.154 119.229 45.0933 118.902 44.972C118.585 44.8413 118.328 44.65 118.132 44.398C117.936 44.146 117.796 43.838 117.712 43.474C117.638 43.1007 117.6 42.6713 117.6 42.186V35.69L118.902 35.466V37.72ZM122.775 41.374C122.775 40.73 122.868 40.17 123.055 39.694C123.241 39.2087 123.489 38.8073 123.797 38.49C124.105 38.1727 124.459 37.9347 124.861 37.776C125.262 37.6173 125.673 37.538 126.093 37.538C127.073 37.538 127.824 37.846 128.347 38.462C128.869 39.0687 129.131 39.9973 129.131 41.248C129.131 41.304 129.131 41.3787 129.131 41.472C129.131 41.556 129.126 41.6353 129.117 41.71H124.133C124.189 42.466 124.408 43.04 124.791 43.432C125.173 43.824 125.771 44.02 126.583 44.02C127.04 44.02 127.423 43.9827 127.731 43.908C128.048 43.824 128.286 43.7447 128.445 43.67L128.627 44.762C128.468 44.846 128.188 44.9347 127.787 45.028C127.395 45.1213 126.947 45.168 126.443 45.168C125.808 45.168 125.257 45.0747 124.791 44.888C124.333 44.692 123.955 44.426 123.657 44.09C123.358 43.754 123.134 43.3573 122.985 42.9C122.845 42.4333 122.775 41.9247 122.775 41.374ZM127.773 40.66C127.782 40.072 127.633 39.5913 127.325 39.218C127.026 38.8353 126.611 38.644 126.079 38.644C125.78 38.644 125.514 38.7047 125.281 38.826C125.057 38.938 124.865 39.0873 124.707 39.274C124.548 39.4607 124.422 39.6753 124.329 39.918C124.245 40.1607 124.189 40.408 124.161 40.66H127.773ZM133.465 44.062C133.773 44.062 134.044 44.0573 134.277 44.048C134.52 44.0293 134.72 44.0013 134.879 43.964V41.794C134.786 41.7473 134.632 41.71 134.417 41.682C134.212 41.6447 133.96 41.626 133.661 41.626C133.465 41.626 133.255 41.64 133.031 41.668C132.816 41.696 132.616 41.7567 132.429 41.85C132.252 41.934 132.102 42.0553 131.981 42.214C131.86 42.3633 131.799 42.564 131.799 42.816C131.799 43.2827 131.948 43.6093 132.247 43.796C132.546 43.9733 132.952 44.062 133.465 44.062ZM133.353 37.538C133.876 37.538 134.314 37.608 134.669 37.748C135.033 37.8787 135.322 38.07 135.537 38.322C135.761 38.5647 135.92 38.8587 136.013 39.204C136.106 39.54 136.153 39.9133 136.153 40.324V44.874C136.041 44.8927 135.882 44.9207 135.677 44.958C135.481 44.986 135.257 45.014 135.005 45.042C134.753 45.07 134.478 45.0933 134.179 45.112C133.89 45.14 133.6 45.154 133.311 45.154C132.9 45.154 132.522 45.112 132.177 45.028C131.832 44.944 131.533 44.8133 131.281 44.636C131.029 44.4493 130.833 44.2067 130.693 43.908C130.553 43.6093 130.483 43.25 130.483 42.83C130.483 42.4287 130.562 42.0833 130.721 41.794C130.889 41.5047 131.113 41.2713 131.393 41.094C131.673 40.9167 132 40.786 132.373 40.702C132.746 40.618 133.138 40.576 133.549 40.576C133.68 40.576 133.815 40.5853 133.955 40.604C134.095 40.6133 134.226 40.632 134.347 40.66C134.478 40.6787 134.59 40.6973 134.683 40.716C134.776 40.7347 134.842 40.7487 134.879 40.758V40.394C134.879 40.1793 134.856 39.9693 134.809 39.764C134.762 39.5493 134.678 39.3627 134.557 39.204C134.436 39.036 134.268 38.9053 134.053 38.812C133.848 38.7093 133.577 38.658 133.241 38.658C132.812 38.658 132.434 38.6907 132.107 38.756C131.79 38.812 131.552 38.8727 131.393 38.938L131.239 37.86C131.407 37.7853 131.687 37.7153 132.079 37.65C132.471 37.5753 132.896 37.538 133.353 37.538ZM138.315 37.93C138.614 37.8553 139.006 37.776 139.491 37.692C139.986 37.608 140.555 37.566 141.199 37.566C141.666 37.566 142.058 37.6313 142.375 37.762C142.693 37.8833 142.959 38.0653 143.173 38.308C143.239 38.2613 143.341 38.196 143.481 38.112C143.621 38.028 143.794 37.9487 143.999 37.874C144.205 37.79 144.433 37.72 144.685 37.664C144.937 37.5987 145.208 37.566 145.497 37.566C146.057 37.566 146.515 37.65 146.869 37.818C147.224 37.9767 147.499 38.2053 147.695 38.504C147.901 38.8027 148.036 39.1573 148.101 39.568C148.176 39.9787 148.213 40.4267 148.213 40.912V45H146.911V41.192C146.911 40.7627 146.888 40.394 146.841 40.086C146.804 39.778 146.725 39.5213 146.603 39.316C146.491 39.1107 146.333 38.9613 146.127 38.868C145.931 38.7653 145.675 38.714 145.357 38.714C144.919 38.714 144.555 38.7747 144.265 38.896C143.985 39.008 143.794 39.1107 143.691 39.204C143.766 39.4467 143.822 39.7127 143.859 40.002C143.897 40.2913 143.915 40.5947 143.915 40.912V45H142.613V41.192C142.613 40.7627 142.59 40.394 142.543 40.086C142.497 39.778 142.413 39.5213 142.291 39.316C142.179 39.1107 142.021 38.9613 141.815 38.868C141.619 38.7653 141.367 38.714 141.059 38.714C140.929 38.714 140.789 38.7187 140.639 38.728C140.49 38.7373 140.345 38.7513 140.205 38.77C140.075 38.7793 139.953 38.7933 139.841 38.812C139.729 38.8307 139.655 38.8447 139.617 38.854V45H138.315V37.93Z" fill="black"/>
</svg>
