<svg width="25" height="26" viewBox="0 0 25 26" fill="none" xmlns="http://www.w3.org/2000/svg">
<path d="M18.6742 6.74999C18.1119 5.24469 17.1925 3.90771 15.9996 2.86058C14.8067 1.81345 13.3781 1.08938 11.8436 0.754197C10.3091 0.419009 8.71749 0.483331 7.21336 0.941316C5.70923 1.3993 4.34032 2.23642 3.23106 3.37659C2.1218 4.51675 1.30736 5.9238 0.86179 7.46983C0.416218 9.01586 0.35364 10.6518 0.679743 12.2291C1.00585 13.8063 1.71029 15.2747 2.72904 16.5009C3.74778 17.727 5.04853 18.672 6.51303 19.25C7.07532 20.7553 7.99471 22.0923 9.18764 23.1394C10.3806 24.1865 11.8092 24.9106 13.3437 25.2458C14.8781 25.581 16.4698 25.5166 17.9739 25.0587C19.478 24.6007 20.8469 23.7636 21.9562 22.6234C23.0655 21.4832 23.8799 20.0762 24.3255 18.5301C24.771 16.9841 24.8336 15.3481 24.5075 13.7709C24.1814 12.1937 23.477 10.7253 22.4582 9.49912C21.4395 8.27295 20.1387 7.32794 18.6742 6.74999V6.74999ZM16.7284 8.74999C16.8163 9.21965 16.8611 9.69673 16.8622 10.175C16.8597 10.7391 16.7944 11.3011 16.6676 11.85L13.7003 8.82499C14.2343 8.69469 14.7811 8.62759 15.3299 8.62499C15.7952 8.62618 16.2593 8.67221 16.7163 8.76249L16.7284 8.74999ZM15.5853 14.25C15.1005 14.9592 14.4997 15.5767 13.8097 16.075L9.60197 11.75C10.0868 11.0408 10.6875 10.4233 11.3775 9.92499L15.5853 14.25ZM5.85632 16.075C5.01379 15.4759 4.30961 14.6939 3.79358 13.7843C3.27756 12.8746 2.96229 11.8595 2.8701 10.8108C2.7779 9.76203 2.91101 8.70528 3.26002 7.71527C3.60904 6.72526 4.16543 5.82616 4.88983 5.08157C5.61424 4.33699 6.48897 3.7651 7.45215 3.40636C8.41533 3.04762 9.44343 2.9108 10.4637 3.00557C11.484 3.10034 12.4716 3.42438 13.3566 3.95478C14.2417 4.48518 15.0025 5.20898 15.5853 6.07499H15.2813C12.7826 6.09152 10.3923 7.12592 8.6346 8.95134C6.87689 10.7768 5.89526 13.2442 5.90497 15.8125C5.90497 15.9125 5.91713 16.025 5.91713 16.125L5.85632 16.075ZM8.41018 17.1875C8.32235 16.7178 8.27756 16.2407 8.2764 15.7625C8.27893 15.1984 8.34422 14.6364 8.47098 14.0875L11.4262 17.125C10.8921 17.2553 10.3454 17.3224 9.79655 17.325C9.35304 17.3365 8.90942 17.3072 8.47098 17.2375L8.41018 17.1875ZM15.3299 23C14.1917 22.9978 13.071 22.711 12.0647 22.1644C11.0583 21.6178 10.1964 20.8278 9.55333 19.8625H9.85736C12.3539 19.8592 14.7475 18.8392 16.514 17.0259C18.2804 15.2125 19.2759 12.7536 19.2823 10.1875C19.2823 10.0875 19.2823 9.97499 19.2823 9.87499C20.5177 10.7412 21.4503 11.9917 21.9433 13.4428C22.4364 14.894 22.4638 16.4694 22.0216 17.9377C21.5795 19.4061 20.691 20.6901 19.4866 21.6012C18.2822 22.5123 16.8253 23.0026 15.3299 23V23Z" fill="black"/>
</svg>
