<svg width="29" height="23" viewBox="0 0 29 23" fill="none" xmlns="http://www.w3.org/2000/svg">
<path d="M14.8873 11.7842C15.5765 11.1876 16.1293 10.4498 16.5082 9.6207C16.8871 8.79162 17.0832 7.89075 17.0832 6.97921C17.0832 5.26635 16.4027 3.62365 15.1916 2.41248C13.9804 1.2013 12.3377 0.520874 10.6248 0.520874C8.91198 0.520874 7.26928 1.2013 6.05811 2.41248C4.84693 3.62365 4.1665 5.26635 4.1665 6.97921C4.16649 7.89075 4.36258 8.79162 4.74146 9.6207C5.12033 10.4498 5.67313 11.1876 6.36234 11.7842C4.55418 12.603 3.02011 13.9252 1.94352 15.5927C0.866935 17.2603 0.293405 19.2027 0.291504 21.1875C0.291504 21.5301 0.42759 21.8587 0.669824 22.1009C0.912059 22.3431 1.2406 22.4792 1.58317 22.4792C1.92574 22.4792 2.25428 22.3431 2.49652 22.1009C2.73875 21.8587 2.87484 21.5301 2.87484 21.1875C2.87484 19.1321 3.69135 17.1609 5.14476 15.7075C6.59817 14.2541 8.56941 13.4375 10.6248 13.4375C12.6803 13.4375 14.6515 14.2541 16.1049 15.7075C17.5583 17.1609 18.3748 19.1321 18.3748 21.1875C18.3748 21.5301 18.5109 21.8587 18.7532 22.1009C18.9954 22.3431 19.3239 22.4792 19.6665 22.4792C20.0091 22.4792 20.3376 22.3431 20.5799 22.1009C20.8221 21.8587 20.9582 21.5301 20.9582 21.1875C20.9563 19.2027 20.3827 17.2603 19.3062 15.5927C18.2296 13.9252 16.6955 12.603 14.8873 11.7842ZM10.6248 10.8542C9.85844 10.8542 9.10924 10.6269 8.472 10.2012C7.83476 9.77536 7.33809 9.17017 7.0448 8.46211C6.75151 7.75404 6.67478 6.97491 6.8243 6.22323C6.97381 5.47156 7.34287 4.7811 7.8848 4.23917C8.42673 3.69724 9.11719 3.32818 9.86886 3.17866C10.6205 3.02915 11.3997 3.10589 12.1077 3.39917C12.8158 3.69246 13.421 4.18913 13.8468 4.82637C14.2726 5.46361 14.4998 6.2128 14.4998 6.97921C14.4998 8.00692 14.0916 8.99254 13.3649 9.71925C12.6382 10.4459 11.6526 10.8542 10.6248 10.8542ZM23.2057 11.2675C24.0323 10.3367 24.5723 9.18674 24.7606 7.95615C24.9489 6.72555 24.7775 5.46676 24.2671 4.33129C23.7567 3.19582 22.929 2.23207 21.8836 1.55605C20.8382 0.880022 19.6198 0.520541 18.3748 0.520874C18.0323 0.520874 17.7037 0.65696 17.4615 0.899195C17.2193 1.14143 17.0832 1.46997 17.0832 1.81254C17.0832 2.15511 17.2193 2.48365 17.4615 2.72589C17.7037 2.96812 18.0323 3.10421 18.3748 3.10421C19.4026 3.10421 20.3882 3.51247 21.1149 4.23917C21.8416 4.96587 22.2498 5.95149 22.2498 6.97921C22.248 7.65764 22.0681 8.32371 21.7281 8.91079C21.3881 9.49788 20.8999 9.98541 20.3123 10.3246C20.1208 10.4351 19.9609 10.5929 19.8478 10.7828C19.7347 10.9728 19.6723 11.1886 19.6665 11.4096C19.6611 11.6289 19.7116 11.8459 19.8133 12.0403C19.915 12.2346 20.0645 12.3999 20.2478 12.5205L20.7515 12.8563L20.9194 12.9467C22.4764 13.6852 23.7899 14.8532 24.7053 16.3132C25.6206 17.7732 26.0997 19.4644 26.0861 21.1875C26.0861 21.5301 26.2222 21.8587 26.4644 22.1009C26.7066 22.3431 27.0352 22.4792 27.3778 22.4792C27.7203 22.4792 28.0489 22.3431 28.2911 22.1009C28.5333 21.8587 28.6694 21.5301 28.6694 21.1875C28.68 19.2054 28.1835 17.2535 27.2272 15.5172C26.2709 13.781 24.8866 12.3181 23.2057 11.2675Z" fill="black"/>
</svg>
