<svg width="24" height="24" viewBox="0 0 24 24" fill="none" xmlns="http://www.w3.org/2000/svg">
<path d="M11.8332 0.333374C9.52573 0.333374 7.2701 1.01761 5.35152 2.29956C3.43295 3.58151 1.9376 5.4036 1.05458 7.5354C0.171559 9.6672 -0.05948 12.013 0.390681 14.2761C0.840842 16.5392 1.95198 18.618 3.5836 20.2496C5.21521 21.8812 7.29401 22.9924 9.55712 23.4425C11.8202 23.8927 14.166 23.6617 16.2978 22.7786C18.4296 21.8956 20.2517 20.4003 21.5337 18.4817C22.8156 16.5631 23.4998 14.3075 23.4998 12C23.4998 10.468 23.1981 8.95087 22.6118 7.5354C22.0255 6.11993 21.1661 4.83381 20.0828 3.75046C18.9994 2.66711 17.7133 1.80775 16.2978 1.22145C14.8824 0.635141 13.3653 0.333374 11.8332 0.333374V0.333374ZM11.8332 21.3334C9.98722 21.3334 8.18271 20.786 6.64785 19.7604C5.11299 18.7349 3.91672 17.2772 3.2103 15.5718C2.50388 13.8663 2.31905 11.9897 2.67918 10.1792C3.03931 8.36871 3.92822 6.70567 5.23351 5.40038C6.5388 4.09509 8.20184 3.20617 10.0123 2.84604C11.8228 2.48592 13.6994 2.67075 15.4049 3.37717C17.1103 4.08358 18.568 5.27986 19.5936 6.81472C20.6191 8.34958 21.1665 10.1541 21.1665 12C21.1665 14.4754 20.1832 16.8494 18.4328 18.5997C16.6825 20.35 14.3085 21.3334 11.8332 21.3334V21.3334ZM15.4498 12.735L12.9998 11.3234V6.16671C12.9998 5.85729 12.8769 5.56054 12.6581 5.34175C12.4393 5.12296 12.1426 5.00004 11.8332 5.00004C11.5238 5.00004 11.227 5.12296 11.0082 5.34175C10.7894 5.56054 10.6665 5.85729 10.6665 6.16671V12C10.6665 12 10.6665 12.0934 10.6665 12.14C10.6734 12.2204 10.6931 12.2992 10.7248 12.3734C10.7489 12.4426 10.7802 12.5091 10.8182 12.5717C10.8501 12.638 10.8892 12.7006 10.9348 12.7584L11.1215 12.91L11.2265 13.015L14.2598 14.765C14.4376 14.8658 14.6388 14.9181 14.8432 14.9167C15.1015 14.9185 15.3531 14.8345 15.5586 14.6779C15.764 14.5213 15.9117 14.301 15.9784 14.0514C16.0451 13.8019 16.0271 13.5372 15.9273 13.299C15.8274 13.0607 15.6513 12.8624 15.4265 12.735H15.4498Z" fill="black"/>
</svg>
