<svg width="50" height="22" viewBox="0 0 50 22" fill="none" xmlns="http://www.w3.org/2000/svg">
<path d="M10 0.348047H40C45.3306 0.348047 49.652 4.66937 49.652 10V11.5789C49.652 16.9096 45.3306 21.2309 40 21.2309H10C4.66937 21.2309 0.348047 16.9096 0.348047 11.5789V10C0.348047 4.66937 4.66937 0.348047 10 0.348047Z" fill="url(#paint0_linear_1604_77337)" stroke="white" stroke-width="0.696093"/>
<path d="M10.1551 13.0654H10.1488C10.199 12.9473 10.2253 12.8205 10.2262 12.6922C10.2262 12.5683 10.202 12.4457 10.1546 12.3312C10.1072 12.2167 10.0377 12.1128 9.95014 12.0252C9.86255 11.9376 9.75853 11.8681 9.64407 11.8207C9.52961 11.7733 9.40687 11.749 9.283 11.7491C9.10542 11.7496 8.93161 11.7998 8.78097 11.8938C8.68207 11.6525 8.51342 11.4461 8.29667 11.3011C8.07992 11.1561 7.82491 11.079 7.56412 11.0796C7.39121 11.0792 7.21986 11.1129 7.06003 11.1789C6.90021 11.2449 6.75505 11.3418 6.63279 11.4641C6.51052 11.5863 6.41363 11.7315 6.34766 11.8914C6.28168 12.0512 6.24791 12.2225 6.24833 12.3954C6.24819 12.4492 6.25126 12.503 6.25771 12.5565H6.24833C6.01451 12.5569 5.79034 12.6499 5.625 12.8152C5.45966 12.9806 5.36663 13.2047 5.36621 13.4386C5.36663 13.6724 5.45966 13.8965 5.625 14.0618C5.79034 14.2272 6.01451 14.3202 6.24833 14.3206H10.153C10.3187 14.3205 10.4775 14.2546 10.5947 14.1375C10.7118 14.0204 10.7776 13.8615 10.7778 13.6959C10.7787 13.6135 10.7633 13.5318 10.7324 13.4554C10.7015 13.379 10.6558 13.3095 10.5979 13.2508C10.54 13.1922 10.4711 13.1456 10.3951 13.1138C10.3191 13.082 10.2375 13.0655 10.1551 13.0654V13.0654Z" fill="white"/>
<path d="M21.0906 16.7679H21.0853C21.123 16.6795 21.1428 16.5845 21.1433 16.4884C21.1434 16.3956 21.1251 16.3037 21.0896 16.218C21.0541 16.1323 21.0022 16.0544 20.9365 15.9888C20.8709 15.9232 20.793 15.8712 20.7073 15.8357C20.6216 15.8002 20.5297 15.782 20.437 15.7821C20.304 15.7825 20.1738 15.8201 20.0611 15.8905C19.9871 15.7097 19.8609 15.5551 19.6985 15.4464C19.5361 15.3377 19.345 15.28 19.1496 15.2805C19.0204 15.2805 18.8924 15.3058 18.7731 15.3552C18.6537 15.4047 18.5453 15.4771 18.454 15.5685C18.3627 15.6598 18.2903 15.7684 18.241 15.8877C18.1916 16.0071 18.1663 16.135 18.1665 16.2642C18.1663 16.3045 18.1685 16.3447 18.1733 16.3847H18.1665C17.9914 16.385 17.8234 16.4547 17.6996 16.5785C17.5758 16.7023 17.5061 16.8702 17.5059 17.0453C17.5061 17.2204 17.5758 17.3882 17.6996 17.512C17.8234 17.6358 17.9914 17.7055 18.1665 17.7058H21.0901C21.214 17.7057 21.3328 17.6563 21.4205 17.5687C21.5081 17.4811 21.5573 17.3623 21.5574 17.2384C21.5579 17.1768 21.5462 17.1157 21.523 17.0586C21.4998 17.0016 21.4654 16.9497 21.422 16.9059C21.3786 16.8622 21.327 16.8275 21.2701 16.8038C21.2132 16.7801 21.1522 16.7678 21.0906 16.7679V16.7679Z" fill="white"/>
<path d="M17.3983 8.61739C18.3093 8.61542 19.0462 7.87533 19.0442 6.96435C19.0422 6.05337 18.3021 5.31648 17.3912 5.31845C16.4802 5.32042 15.7433 6.06051 15.7453 6.97149C15.7472 7.88247 16.4873 8.61936 17.3983 8.61739Z" fill="#FFDC7B"/>
<path d="M17.3892 4.69045C17.3371 4.69017 17.2872 4.66935 17.2503 4.6325C17.2135 4.59564 17.1927 4.54572 17.1924 4.49359V3.08516C17.1925 3.033 17.2133 2.98301 17.2502 2.94613C17.2871 2.90924 17.3371 2.88844 17.3892 2.88831V2.88831C17.4414 2.88844 17.4914 2.90924 17.5283 2.94613C17.5652 2.98301 17.5859 3.033 17.586 3.08516V4.49359C17.587 4.5197 17.5826 4.54573 17.573 4.57005C17.5635 4.59436 17.549 4.61647 17.5305 4.63494C17.512 4.65341 17.4899 4.66785 17.4656 4.67741C17.4413 4.68696 17.4153 4.69141 17.3892 4.69045V4.69045Z" fill="#FFDC7B"/>
<path d="M17.4078 11.0531C17.3557 11.0528 17.3058 11.032 17.269 10.9951C17.2321 10.9582 17.2112 10.9084 17.2109 10.8563V9.44783C17.2112 9.39571 17.2321 9.34578 17.269 9.30893C17.3058 9.27207 17.3557 9.25125 17.4078 9.25098C17.4599 9.25125 17.5098 9.27207 17.5467 9.30893C17.5836 9.34578 17.6044 9.39571 17.6046 9.44783V10.8563C17.6044 10.9084 17.5836 10.9582 17.5467 10.9951C17.5098 11.032 17.4599 11.0528 17.4078 11.0531Z" fill="#FFDC7B"/>
<path d="M19.0068 5.35663C18.9702 5.31942 18.9497 5.26933 18.9497 5.21715C18.9497 5.16497 18.9702 5.11494 19.0068 5.07773L20.0025 4.0819C20.0398 4.04528 20.09 4.02478 20.1423 4.02478C20.1945 4.02478 20.2447 4.04528 20.282 4.0819V4.0819C20.3186 4.1191 20.3391 4.1692 20.3391 4.22138C20.3391 4.27355 20.3186 4.32365 20.282 4.36086L19.2862 5.35663C19.249 5.39337 19.1988 5.414 19.1465 5.414C19.0942 5.414 19.044 5.39337 19.0068 5.35663Z" fill="#FFDC7B"/>
<path d="M14.5151 9.86084C14.4785 9.82363 14.458 9.77354 14.458 9.72136C14.458 9.66918 14.4785 9.61915 14.5151 9.58194L15.5114 8.5861C15.5486 8.54953 15.5987 8.52905 15.6509 8.52905C15.7031 8.52905 15.7532 8.54953 15.7904 8.5861C15.827 8.62331 15.8474 8.67341 15.8474 8.72559C15.8474 8.77776 15.827 8.82786 15.7904 8.86507L14.7945 9.86084C14.7769 9.88037 14.7553 9.89603 14.7313 9.90671C14.7072 9.9174 14.6811 9.9229 14.6548 9.9229C14.6285 9.9229 14.6025 9.9174 14.5784 9.90671C14.5543 9.89603 14.5327 9.88037 14.5151 9.86084V9.86084Z" fill="#FFDC7B"/>
<path d="M19.6719 6.96834C19.6722 6.91622 19.693 6.86629 19.7298 6.82944C19.7667 6.79258 19.8166 6.77176 19.8687 6.77148H21.2772C21.3293 6.77176 21.3791 6.79258 21.416 6.82944C21.4529 6.86629 21.4737 6.91622 21.474 6.96834C21.4737 7.02046 21.4529 7.07032 21.416 7.10718C21.3791 7.14403 21.3293 7.16492 21.2772 7.16519H19.8687C19.8166 7.16492 19.7667 7.14403 19.7298 7.10718C19.693 7.07032 19.6722 7.02046 19.6719 6.96834Z" fill="#FFDC7B"/>
<path d="M13.3159 6.98091C13.3162 6.92879 13.337 6.87893 13.3739 6.84207C13.4107 6.80522 13.4606 6.78433 13.5127 6.78406H14.9211C14.9733 6.78433 15.0232 6.80522 15.06 6.84207C15.0969 6.87893 15.1177 6.92879 15.118 6.98091C15.1177 7.03303 15.0969 7.08296 15.06 7.11982C15.0232 7.15667 14.9733 7.17749 14.9211 7.17777H13.5127C13.4606 7.17749 13.4107 7.15667 13.3739 7.11982C13.337 7.08296 13.3162 7.03303 13.3159 6.98091Z" fill="#FFDC7B"/>
<path d="M19.0124 8.57939C19.0496 8.54281 19.0997 8.52234 19.1519 8.52234C19.2041 8.52234 19.2542 8.54281 19.2914 8.57939L20.2872 9.57516C20.3237 9.61237 20.3442 9.66247 20.3442 9.71464C20.3442 9.76682 20.3237 9.81692 20.2872 9.85413V9.85413C20.25 9.89071 20.1999 9.91118 20.1477 9.91118C20.0955 9.91118 20.0454 9.89071 20.0082 9.85413L19.0124 8.85835C18.9937 8.84029 18.9787 8.81858 18.9685 8.79462C18.9584 8.77066 18.9531 8.74491 18.9531 8.71887C18.9531 8.69283 18.9584 8.66702 18.9685 8.64306C18.9787 8.6191 18.9937 8.59746 19.0124 8.57939V8.57939Z" fill="#FFDC7B"/>
<path d="M14.5019 4.09471C14.5391 4.05813 14.5892 4.0376 14.6414 4.0376C14.6935 4.0376 14.7436 4.05813 14.7808 4.09471L15.7766 5.09049C15.8132 5.12769 15.8337 5.17779 15.8337 5.22997C15.8337 5.28214 15.8132 5.33224 15.7766 5.36945V5.36945C15.7394 5.40603 15.6893 5.4265 15.6371 5.4265C15.585 5.4265 15.5349 5.40603 15.4976 5.36945L14.5019 4.37361C14.4653 4.3364 14.4448 4.28637 14.4448 4.2342C14.4448 4.18202 14.4653 4.13192 14.5019 4.09471V4.09471Z" fill="#FFDC7B"/>
<path d="M24.9704 9.84158H24.9577C25.0568 9.6085 25.1086 9.358 25.1099 9.10472C25.1089 8.61091 24.9119 8.13772 24.5621 7.78913C24.2123 7.44054 23.7384 7.24509 23.2446 7.24579C22.8946 7.2469 22.5519 7.34569 22.2551 7.53104C22.0592 7.0567 21.7266 6.65141 21.2995 6.36675C20.8725 6.0821 20.3704 5.93097 19.8572 5.93263C19.5171 5.9327 19.1803 5.99994 18.8662 6.13051C18.5522 6.26109 18.267 6.45242 18.0271 6.69351C17.7872 6.93461 17.5972 7.22071 17.4681 7.53541C17.3391 7.85012 17.2735 8.18727 17.2751 8.5274C17.2739 8.63321 17.2824 8.7389 17.3004 8.84317H17.2814C16.8216 8.84443 16.3811 9.02797 16.0564 9.35355C15.7317 9.67914 15.5493 10.1202 15.5493 10.58C15.5506 11.0398 15.7341 11.4804 16.0597 11.805C16.3853 12.1297 16.8264 12.3121 17.2862 12.3121L24.9809 12.2931C25.1429 12.2928 25.3033 12.2605 25.4528 12.1982C25.6024 12.1358 25.7382 12.0446 25.8525 11.9298C25.9668 11.8149 26.0573 11.6786 26.1189 11.5287C26.1805 11.3789 26.2119 11.2183 26.2115 11.0563C26.2038 10.732 26.0697 10.4235 25.8379 10.1966C25.606 9.9697 25.2948 9.84231 24.9704 9.84158V9.84158Z" fill="white"/>
<defs>
<linearGradient id="paint0_linear_1604_77337" x1="6.31579" y1="1.57895" x2="52.3684" y2="23.9474" gradientUnits="userSpaceOnUse">
<stop stop-color="#509BC6"/>
<stop offset="0.53125" stop-color="#47987F"/>
</linearGradient>
</defs>
</svg>
