<svg width="21" height="21" fill="none" xmlns="http://www.w3.org/2000/svg"><path d="M20.395 7.465c.192.646.325 1.319.391 2.01l-.497.048a10.263 10.263 0 010 1.954l.497.047a10.55 10.55 0 01-.391 2.01l-.48-.142a9.995 9.995 0 01-.737 1.806l.442.233c-.32.608-.698 1.18-1.127 1.71l-.388-.315c-.41.507-.87.973-1.369 1.39l.32.384c-.524.437-1.09.823-1.693 1.151l-.24-.439a9.772 9.772 0 01-1.795.756l.147.478c-.644.198-1.316.335-2.007.404l-.05-.498a9.908 9.908 0 01-1.95 0l-.049.498a10.251 10.251 0 01-2.007-.404l.147-.478a9.772 9.772 0 01-1.796-.756l-.239.44A10.402 10.402 0 013.831 18.6l.32-.384c-.5-.417-.958-.883-1.369-1.39l-.388.315a10.524 10.524 0 01-1.128-1.71l.443-.233a9.996 9.996 0 01-.737-1.806l-.48.143a10.55 10.55 0 01-.391-2.01l.497-.048a10.24 10.24 0 010-1.954l-.497-.047C.167 8.784.3 8.11.492 7.466l.48.142c.188-.63.436-1.234.737-1.805l-.443-.234a10.6 10.6 0 011.128-1.71l.388.315c.41-.507.87-.973 1.369-1.39L3.83 2.4c.523-.437 1.09-.823 1.693-1.151l.24.439A9.77 9.77 0 017.558.932L7.412.454A10.25 10.25 0 019.419.05l.05.498a9.91 9.91 0 011.95 0l.049-.498a10.25 10.25 0 012.007.404l-.147.478a9.769 9.769 0 011.796.756l.239-.44c.603.329 1.17.715 1.693 1.152l-.32.384c.5.417.958.883 1.369 1.39l.388-.315c.429.53.807 1.102 1.128 1.71l-.443.234c.302.57.55 1.175.738 1.805l.479-.143z" stroke="#000" stroke-dasharray="2 2"/><ellipse cx="10.444" cy="10.5" rx="4.454" ry="4.5" fill="#000"/></svg>