<svg width="51" height="22" fill="none" xmlns="http://www.w3.org/2000/svg"><path d="M10 .348h30.002c5.33 0 9.652 4.322 9.652 9.652v1.58a9.652 9.652 0 01-9.652 9.652H10c-5.33 0-9.652-4.322-9.652-9.653V10A9.652 9.652 0 0110 .348z" fill="url(#paint0_linear_1601_77336)" stroke="#D7D7D7" stroke-width=".696"/><path d="M31.675 18.194a.348.348 0 100-.696.348.348 0 000 .696zm6.778-9.203a.287.287 0 00.286-.288.287.287 0 00-.286-.289.287.287 0 00-.286.289c0 .16.128.288.286.288z" fill="#fff"/><path d="M33.942 10.691a2.48 2.48 0 001.187-.303 3.172 3.172 0 01-3.514.805 3.206 3.206 0 01-1.473-1.189 3.255 3.255 0 010-3.64c.362-.536.875-.95 1.473-1.188a3.171 3.171 0 011.88-.144 3.193 3.193 0 011.634.95 2.47 2.47 0 00-2.942.43 2.52 2.52 0 00-.727 1.772c0 .665.261 1.303.727 1.773a2.47 2.47 0 001.755.734z" fill="#FFDC7B"/><path d="M27.276 11.454a.14.14 0 00.187-.065.142.142 0 00-.064-.189.14.14 0 00-.187.065.142.142 0 00.064.19zm12.53 4.873a.14.14 0 00.187-.065.142.142 0 00-.064-.19.14.14 0 00-.188.066.142.142 0 00.065.19zM23.066 4.638c.052.15.214.23.364.179a.29.29 0 00.177-.367.285.285 0 00-.363-.18.29.29 0 00-.178.368zm20.188 0c.051.15.214.23.363.179a.29.29 0 00.177-.367.285.285 0 00-.363-.18.29.29 0 00-.177.368zm-1.346 9.578a.14.14 0 00.152-.128.14.14 0 00-.128-.153.14.14 0 00-.151.128.141.141 0 00.127.153z" fill="#fff"/><defs><linearGradient id="paint0_linear_1601_77336" x1="6.316" y1="1.579" x2="52.37" y2="23.948" gradientUnits="userSpaceOnUse"><stop stop-color="#25463C"/><stop offset="1" stop-color="#1D1D1D"/></linearGradient></defs></svg>