<svg width="30" height="28" fill="none" xmlns="http://www.w3.org/2000/svg"><path d="M14.5 25.333c.111 0 .239-.027.383-.083a.989.989 0 00.35-.217l11.234-11.266c.289-.29.505-.617.65-.984a3.025 3.025 0 000-2.25 2.829 2.829 0 00-.65-1l-6-6a2.83 2.83 0 00-1-.65 3.023 3.023 0 00-2.25 0 2.865 2.865 0 00-.984.65l-.6.6 2.7 2.734c.29.31.545.672.767 1.083.222.411.333.861.333 1.35 0 .844-.327 1.589-.983 2.233-.656.645-1.406.967-2.25.967-.556 0-1.017-.083-1.383-.25a3.464 3.464 0 01-1.017-.717L11.367 9.1l-6.034 6.033a.966.966 0 00-.3.734.971.971 0 001 1 .79.79 0 00.384-.1c.122-.067.227-.145.316-.234l4.6-4.6 1.4 1.4L8.167 17.9a.936.936 0 00-.234.367 1.259 1.259 0 00-.066.4c0 .266.1.5.3.7a.96.96 0 001.083.216 1.06 1.06 0 00.317-.216l4.6-4.6 1.4 1.4L11 20.733a.989.989 0 00-.217.35 1.16 1.16 0 00-.083.417c0 .267.1.5.3.7.2.2.433.3.7.3a.98.98 0 00.367-.067c.11-.044.222-.122.333-.233l4.6-4.6 1.4 1.4-4.6 4.6a.935.935 0 00-.233.367 1.167 1.167 0 00-.067.366c0 .311.089.556.267.734.177.177.422.266.733.266zm0 2c-.733 0-1.389-.272-1.967-.816A3.318 3.318 0 0111.5 24.5c-.756-.111-1.389-.422-1.9-.933-.511-.512-.822-1.145-.933-1.9-.756-.112-1.384-.428-1.884-.95a3.39 3.39 0 01-.916-1.884c-.823-.11-1.5-.444-2.034-1a2.786 2.786 0 01-.8-2c0-.377.073-.755.217-1.133a2.82 2.82 0 01.65-1l7.467-7.467L15.033 9.9c.178.178.373.317.584.417.21.1.416.15.616.15.29 0 .561-.128.817-.384.256-.255.383-.527.383-.816 0-.134-.039-.284-.116-.45a1.875 1.875 0 00-.384-.517l-4.766-4.767a2.83 2.83 0 00-1-.65 3.024 3.024 0 00-2.25 0 2.865 2.865 0 00-.984.65L2.867 8.6c-.311.311-.528.639-.65.983A4.067 4.067 0 002 10.733c-.022.445.061.872.25 1.284.189.41.417.783.683 1.116L1.5 14.567A5.847 5.847 0 01.417 12.8 5.571 5.571 0 010 10.7a4.983 4.983 0 011.467-3.533L6.5 2.133A4.644 4.644 0 018.167 1.05a5.372 5.372 0 011.9-.35c.644 0 1.272.117 1.883.35a4.679 4.679 0 011.65 1.083l.6.6.6-.6a4.643 4.643 0 011.667-1.083 5.372 5.372 0 011.9-.35c.644 0 1.272.117 1.883.35a4.679 4.679 0 011.65 1.083L27.867 8.1a4.843 4.843 0 011.1 1.667c.244.622.366 1.255.366 1.9a5.03 5.03 0 01-.366 1.883 4.885 4.885 0 01-1.1 1.65L16.633 26.433a3.084 3.084 0 01-.983.667c-.367.155-.75.233-1.15.233z" fill="#000"/></svg>