<svg width="26" height="26" fill="none" xmlns="http://www.w3.org/2000/svg"><path d="M7.949 23.833h-3.06a1.98 1.98 0 01-1.442-.634 2.237 2.237 0 01-.598-1.533v-7.583c0-.575.215-1.126.598-1.532a1.981 1.981 0 011.442-.635h3.06m7.14-2.166V5.417a3.36 3.36 0 00-.896-2.299 2.972 2.972 0 00-2.164-.951l-4.08 9.75v11.916h11.505a1.97 1.97 0 001.345-.515c.374-.339.621-.81.695-1.327l1.408-9.75c.044-.31.024-.627-.058-.929a2.212 2.212 0 00-.42-.817 2.055 2.055 0 00-.704-.555 1.939 1.939 0 00-.858-.19h-5.773z" stroke="#000" stroke-width="2" stroke-linecap="round" stroke-linejoin="round"/></svg>