<svg width="132" height="22" fill="none" xmlns="http://www.w3.org/2000/svg"><g clip-path="url(#clip0_1307_77797)"><path d="M5.426 0H0v5.426h5.426V0z" fill="url(#paint0_linear_1307_77797)"/><path d="M21.674 5.416h-5.426v5.426h5.426V5.416z" fill="url(#paint1_linear_1307_77797)"/><path d="M16.277 0H10.85v5.426h5.426V0z" fill="url(#paint2_linear_1307_77797)"/><path d="M16.277 10.85H10.85v5.426h5.426v-5.425z" fill="url(#paint3_linear_1307_77797)"/><path d="M21.702 16.276h-5.426v5.426h5.426v-5.426z" fill="url(#paint4_linear_1307_77797)"/><path d="M21.702 16.276h-5.426v5.426h5.426v-5.426z" fill="url(#paint5_linear_1307_77797)"/><path fill-rule="evenodd" clip-rule="evenodd" d="M0 10.85h5.426v10.825H0V10.85z" fill="url(#paint6_linear_1307_77797)"/></g><path d="M40.194 4.948c1.471 0 2.637.367 3.497 1.103.875.736 1.312 1.728 1.312 2.977 0 1.29-.437 2.29-1.312 2.998-.86.694-2.026 1.041-3.497 1.041l-.208.125H36.8v5.496h-2.207V4.948h5.6zm-.167 6.391c.903 0 1.569-.18 1.999-.541.444-.375.666-.944.666-1.707 0-.75-.222-1.312-.666-1.687-.43-.374-1.096-.562-1.999-.562H36.8v4.497h3.227zm1.312.458l4.476 6.891h-2.56l-3.831-6.017 1.915-.874zm10.913 7.099c-1.04 0-1.957-.215-2.748-.645a4.58 4.58 0 01-1.853-1.853c-.43-.819-.645-1.79-.645-2.915 0-1.124.215-2.088.645-2.893.444-.82 1.055-1.444 1.832-1.874.778-.43 1.659-.646 2.644-.646 1.014 0 1.874.209 2.582.625a4.18 4.18 0 011.624 1.707c.374.722.562 1.54.562 2.457 0 .25-.007.486-.021.708a5.783 5.783 0 01-.063.583h-8.369v-1.708h7.391l-1.103.333c0-.943-.236-1.665-.708-2.165-.472-.513-1.117-.77-1.936-.77-.597 0-1.118.139-1.562.417-.444.277-.784.693-1.02 1.249-.236.54-.354 1.207-.354 1.998 0 .777.125 1.437.375 1.978.25.541.604.95 1.062 1.228.458.278.999.417 1.624.417.694 0 1.256-.132 1.686-.396a2.8 2.8 0 001.02-1.103l1.77.832c-.25.5-.59.937-1.02 1.312-.417.36-.916.638-1.5.833a6.022 6.022 0 01-1.915.291zm7.144-.208V8.278h1.977l.105 1.75c.36-.667.84-1.16 1.436-1.479a4.122 4.122 0 011.936-.479c.75 0 1.437.174 2.061.521.639.333 1.117.84 1.437 1.52.222-.458.527-.84.916-1.145a3.812 3.812 0 011.29-.666 4.514 4.514 0 011.395-.23c.666 0 1.291.14 1.874.417a3.36 3.36 0 011.416 1.27c.36.569.54 1.298.54 2.186v6.745h-2.227v-6.391c0-.847-.2-1.458-.603-1.832-.403-.375-.916-.562-1.541-.562-.486 0-.937.117-1.353.354-.403.235-.729.59-.979 1.061-.25.458-.374 1.027-.374 1.707v5.663h-2.228v-6.391c0-.847-.201-1.458-.604-1.832-.402-.375-.916-.562-1.54-.562-.417 0-.833.11-1.25.333-.416.222-.763.569-1.04 1.04-.278.473-.417 1.097-.417 1.874v5.538h-2.227zM83.362 8.07c1.014 0 1.909.216 2.686.646a4.454 4.454 0 011.811 1.874c.444.805.666 1.77.666 2.893 0 1.125-.222 2.096-.666 2.915a4.482 4.482 0 01-1.81 1.853c-.778.43-1.673.645-2.687.645-1.013 0-1.908-.215-2.685-.645a4.616 4.616 0 01-1.832-1.853c-.444-.819-.666-1.79-.666-2.915 0-1.124.222-2.088.666-2.893.444-.82 1.055-1.444 1.832-1.874.777-.43 1.672-.646 2.685-.646zm0 1.75c-.624 0-1.158.145-1.603.437-.43.277-.763.687-.999 1.228-.236.541-.354 1.207-.354 1.998 0 .778.118 1.444.354 1.999.236.541.57.958 1 1.25.444.277.978.415 1.602.415.625 0 1.152-.138 1.583-.416.43-.291.763-.708.999-1.25.236-.554.354-1.22.354-1.998 0-.79-.118-1.457-.354-1.998-.236-.541-.57-.951-1-1.228-.43-.292-.957-.438-1.582-.438zm10.551-4.602v10.347c0 .514.132.888.395 1.124.278.236.646.354 1.104.354.374 0 .7-.055.978-.166.278-.125.535-.292.77-.5l.5 1.624a3.61 3.61 0 01-1.186.666 4.854 4.854 0 01-1.541.23 4.498 4.498 0 01-1.645-.292 2.368 2.368 0 01-1.166-.937c-.277-.444-.423-1.02-.437-1.728V5.843l2.228-.625zm3.58 3.06v1.75h-7.806v-1.75h7.807zm6.472 10.618c-1.041 0-1.957-.215-2.748-.645a4.576 4.576 0 01-1.853-1.853c-.43-.819-.646-1.79-.646-2.915 0-1.124.215-2.088.646-2.893.444-.82 1.055-1.444 1.832-1.874.777-.43 1.658-.646 2.644-.646 1.013 0 1.873.209 2.581.625a4.181 4.181 0 011.624 1.707c.375.722.562 1.54.562 2.457 0 .25-.007.486-.021.708a5.49 5.49 0 01-.062.583h-8.369v-1.708h7.39l-1.103.333c0-.943-.236-1.665-.708-2.165-.472-.513-1.117-.77-1.936-.77-.597 0-1.117.139-1.561.417-.444.277-.784.693-1.02 1.249-.236.54-.354 1.207-.354 1.998 0 .777.125 1.437.374 1.978.25.541.604.95 1.062 1.228.458.278.999.417 1.624.417.694 0 1.256-.132 1.686-.396a2.788 2.788 0 001.02-1.103l1.77.832c-.25.5-.59.937-1.02 1.312-.416.36-.916.638-1.499.833a6.02 6.02 0 01-1.915.291zm11.64-10.826c.833 0 1.541.125 2.123.375a3.94 3.94 0 011.499 1.02c.403.444.708.951.916 1.52l-2.102.833c-.181-.639-.472-1.124-.875-1.457-.388-.347-.902-.52-1.54-.52-.625 0-1.159.145-1.603.436-.444.278-.784.687-1.02 1.229-.222.54-.334 1.207-.334 1.998 0 .777.118 1.437.354 1.978.236.541.576.95 1.021 1.228.444.278.971.417 1.582.417.472 0 .881-.077 1.228-.23.347-.166.632-.395.854-.686.236-.306.395-.673.478-1.104l2.02.687a4.454 4.454 0 01-.916 1.645 4.212 4.212 0 01-1.52 1.082c-.611.25-1.312.375-2.103.375-1.027 0-1.936-.215-2.727-.645a4.58 4.58 0 01-1.853-1.853c-.43-.819-.645-1.79-.645-2.915 0-1.124.215-2.088.645-2.893.444-.82 1.055-1.444 1.832-1.874.791-.43 1.687-.646 2.686-.646zm6.881 10.618V3.594h2.228v6.35c.347-.652.812-1.124 1.394-1.415a4.279 4.279 0 011.978-.459c.736 0 1.395.146 1.978.438.597.277 1.069.7 1.416 1.27.347.569.52 1.29.52 2.165v6.745h-2.227v-6.037c0-1.027-.216-1.742-.646-2.145-.416-.402-.944-.603-1.582-.603-.444 0-.888.11-1.332.333-.431.208-.792.555-1.083 1.04-.278.473-.416 1.11-.416 1.916v5.496h-2.228z" fill="#000"/><defs><linearGradient id="paint0_linear_1307_77797" x1="2.713" y1="0" x2="5.464" y2="5.416" gradientUnits="userSpaceOnUse"><stop stop-color="#53B194"/><stop offset="1" stop-color="#56C561"/></linearGradient><linearGradient id="paint1_linear_1307_77797" x1="18.961" y1="5.416" x2="21.712" y2="10.832" gradientUnits="userSpaceOnUse"><stop stop-color="#53B194"/><stop offset="1" stop-color="#56C561"/></linearGradient><linearGradient id="paint2_linear_1307_77797" x1="13.564" y1="0" x2="16.315" y2="5.416" gradientUnits="userSpaceOnUse"><stop stop-color="#53B194"/><stop offset="1" stop-color="#56C561"/></linearGradient><linearGradient id="paint3_linear_1307_77797" x1="13.564" y1="10.851" x2="16.315" y2="16.267" gradientUnits="userSpaceOnUse"><stop stop-color="#53B194"/><stop offset="1" stop-color="#56C561"/></linearGradient><linearGradient id="paint4_linear_1307_77797" x1="18.989" y1="16.276" x2="21.741" y2="21.692" gradientUnits="userSpaceOnUse"><stop stop-color="#53B194"/><stop offset="1" stop-color="#56C561"/></linearGradient><linearGradient id="paint5_linear_1307_77797" x1="18.989" y1="16.276" x2="21.741" y2="21.692" gradientUnits="userSpaceOnUse"><stop stop-color="#53B194"/><stop offset="1" stop-color="#56C561"/></linearGradient><linearGradient id="paint6_linear_1307_77797" x1="2.713" y1="10.851" x2="9.508" y2="17.556" gradientUnits="userSpaceOnUse"><stop stop-color="#53B194"/><stop offset="1" stop-color="#56C561"/></linearGradient><clipPath id="clip0_1307_77797"><path fill="#fff" d="M0 0h21.702v21.702H0z"/></clipPath></defs></svg>