<svg width="23" height="23" fill="none" xmlns="http://www.w3.org/2000/svg"><path d="M14.831 5.385h4.03l-.89.9a1.126 1.126 0 000 1.588 1.126 1.126 0 001.588 0l2.815-2.814a1.126 1.126 0 000-1.588L19.559.657a1.126 1.126 0 00-1.587 1.587l.89.89H14.83a1.126 1.126 0 100 2.251zm5.066 7.25c-.248 0-.507-.078-.754-.135a10.5 10.5 0 01-1.475-.439 2.252 2.252 0 00-2.792 1.126l-.248.507a13.714 13.714 0 01-2.994-2.252 13.713 13.713 0 01-2.252-2.995l.473-.315A2.251 2.251 0 0010.98 5.34a11.632 11.632 0 01-.44-1.475 8.323 8.323 0 01-.134-.765A3.377 3.377 0 007.029.297H3.652A3.377 3.377 0 00.274 4.136a21.39 21.39 0 0018.599 18.53h.427a3.377 3.377 0 002.252-.855 3.378 3.378 0 001.126-2.533V15.9a3.378 3.378 0 00-2.781-3.265zm.563 6.755a1.126 1.126 0 01-.815 1.083 1.194 1.194 0 01-.491.043 19.138 19.138 0 01-16.56-16.64 1.227 1.227 0 01.281-.922 1.126 1.126 0 01.844-.383h3.378a1.126 1.126 0 011.126.89c.045.307.1.61.168.911.13.593.304 1.177.518 1.745l-1.576.732a1.126 1.126 0 00-.551 1.497c1.62 3.47 4.41 6.26 7.88 7.88.274.113.582.113.856 0a1.128 1.128 0 00.641-.585l.698-1.576c.582.208 1.176.381 1.78.518.3.067.603.124.911.169a1.126 1.126 0 01.89 1.126l.022 3.512z" fill="#000"/></svg>