<svg width="249" height="62" fill="none" xmlns="http://www.w3.org/2000/svg"><rect width="249" height="62" rx="15" fill="#F8F8F8"/><path d="M30.395 17.465c.192.646.325 1.319.391 2.01l-.497.048a10.265 10.265 0 010 1.954l.497.047a10.55 10.55 0 01-.391 2.01l-.48-.142a9.991 9.991 0 01-.737 1.805l.442.234c-.32.608-.698 1.18-1.127 1.71l-.388-.315c-.41.507-.87.973-1.369 1.39l.32.384c-.524.437-1.09.823-1.693 1.151l-.24-.439a9.772 9.772 0 01-1.795.756l.147.478c-.645.198-1.316.335-2.007.404l-.05-.498a9.908 9.908 0 01-1.95 0l-.049.498a10.251 10.251 0 01-2.008-.404l.148-.478a9.773 9.773 0 01-1.796-.756l-.239.44a10.405 10.405 0 01-1.693-1.152l.32-.384c-.5-.417-.958-.883-1.369-1.39l-.388.315a10.518 10.518 0 01-1.127-1.71l.442-.233a9.995 9.995 0 01-.737-1.806l-.48.143a10.55 10.55 0 01-.391-2.01l.497-.048a10.232 10.232 0 010-1.954l-.497-.047a10.56 10.56 0 01.391-2.01l.48.142c.188-.63.436-1.234.737-1.806l-.442-.233c.32-.608.698-1.18 1.127-1.71l.388.315c.41-.507.87-.973 1.369-1.39l-.32-.384a10.405 10.405 0 011.693-1.151l.24.439a9.773 9.773 0 011.795-.756l-.148-.478a10.251 10.251 0 012.008-.404l.05.498a9.906 9.906 0 011.95 0l.049-.498c.691.069 1.363.205 2.007.404l-.147.478a9.772 9.772 0 011.796.756l.239-.44c.602.329 1.17.715 1.693 1.152l-.32.384c.5.417.958.883 1.369 1.39l.388-.315c.429.53.807 1.102 1.128 1.71l-.443.233c.302.572.55 1.176.738 1.806l.479-.143z" stroke="#000" stroke-dasharray="2 2"/><ellipse cx="20.444" cy="20.5" rx="4.454" ry="4.5" fill="#000"/><path d="M48.126 20.226h1.358v4.536c-.112.037-.275.08-.49.126a12.917 12.917 0 01-1.624.252 8.756 8.756 0 01-.994.056 4.972 4.972 0 01-1.862-.336 3.96 3.96 0 01-1.442-.98 4.509 4.509 0 01-.938-1.582c-.215-.625-.322-1.344-.322-2.156s.121-1.53.364-2.156c.252-.635.588-1.167 1.008-1.596.42-.43.91-.756 1.47-.98a4.926 4.926 0 011.82-.336 7.135 7.135 0 012.044.28c.243.075.439.15.588.224.159.075.266.13.322.168l-.434 1.134c-.27-.177-.63-.322-1.078-.434a5.227 5.227 0 00-1.372-.182 3.39 3.39 0 00-1.358.266 2.897 2.897 0 00-1.036.77c-.28.336-.5.747-.658 1.232a5.076 5.076 0 00-.238 1.61c0 .579.065 1.106.196 1.582.14.476.345.887.616 1.232.28.336.62.597 1.022.784.41.187.891.28 1.442.28a7.5 7.5 0 00.994-.056c.28-.047.48-.089.602-.126v-3.612zm2.994 1.148c0-.644.094-1.204.28-1.68.187-.485.434-.887.742-1.204a3.013 3.013 0 011.064-.714 3.323 3.323 0 011.232-.238c.98 0 1.732.308 2.254.924.523.607.784 1.535.784 2.786v.224c0 .084-.004.163-.014.238h-4.984c.056.756.276 1.33.658 1.722.383.392.98.588 1.792.588.458 0 .84-.037 1.148-.112a4.47 4.47 0 00.714-.238l.182 1.092c-.158.084-.438.173-.84.266-.392.093-.84.14-1.344.14-.634 0-1.185-.093-1.652-.28a3.15 3.15 0 01-1.134-.798 3.317 3.317 0 01-.672-1.19 5.294 5.294 0 01-.21-1.526zm4.998-.714c.01-.588-.14-1.069-.448-1.442-.298-.383-.714-.574-1.246-.574a1.7 1.7 0 00-.798.182 1.801 1.801 0 00-.574.448 2.209 2.209 0 00-.378.644c-.084.243-.14.49-.168.742h3.612zm4.447-2.94h2.758v1.092h-2.758v3.36c0 .364.028.667.084.91.056.233.14.42.252.56.112.13.252.224.42.28.168.056.364.084.588.084.392 0 .704-.042.938-.126.242-.093.41-.159.504-.196l.252 1.078c-.131.065-.36.145-.686.238-.327.103-.7.154-1.12.154-.495 0-.906-.06-1.232-.182a1.842 1.842 0 01-.77-.574 2.34 2.34 0 01-.42-.924 6.615 6.615 0 01-.112-1.288V15.69l1.302-.224v2.254zm12.359 1.54a2.726 2.726 0 00-.686-.378 2.58 2.58 0 00-.98-.182c-.374 0-.696.07-.966.21a1.68 1.68 0 00-.644.56 2.28 2.28 0 00-.364.84 4.703 4.703 0 00-.112 1.05c0 .85.21 1.507.63 1.974.42.457.98.686 1.68.686.354 0 .648-.014.882-.042a4.85 4.85 0 00.56-.112V19.26zm0-4.9l1.302-.224V24.79a12.65 12.65 0 01-1.148.252 9.166 9.166 0 01-1.61.126 4.08 4.08 0 01-1.512-.266 3.239 3.239 0 01-1.148-.756 3.433 3.433 0 01-.742-1.19 4.772 4.772 0 01-.252-1.596c0-.56.07-1.073.21-1.54.149-.467.364-.868.644-1.204a2.91 2.91 0 011.022-.784 3.34 3.34 0 011.4-.28c.42 0 .788.056 1.106.168.326.112.569.22.728.322V14.36zm3.134 7.014c0-.644.093-1.204.28-1.68.186-.485.434-.887.742-1.204a3.013 3.013 0 011.064-.714 3.323 3.323 0 011.232-.238c.98 0 1.731.308 2.254.924.522.607.784 1.535.784 2.786v.224c0 .084-.005.163-.014.238h-4.984c.056.756.275 1.33.658 1.722.382.392.98.588 1.792.588.457 0 .84-.037 1.148-.112a4.47 4.47 0 00.714-.238l.182 1.092c-.159.084-.439.173-.84.266-.392.093-.84.14-1.344.14-.635 0-1.186-.093-1.652-.28a3.15 3.15 0 01-1.134-.798 3.317 3.317 0 01-.672-1.19 5.294 5.294 0 01-.21-1.526zm4.998-.714c.01-.588-.14-1.069-.448-1.442-.299-.383-.714-.574-1.246-.574-.299 0-.565.06-.798.182a1.801 1.801 0 00-.574.448 2.209 2.209 0 00-.378.644c-.084.243-.14.49-.168.742h3.612zm8.912-2.94a35.71 35.71 0 01-1.288 3.92A58.533 58.533 0 0187.266 25H86.09c-.457-.99-.933-2.11-1.428-3.36a37.758 37.758 0 01-1.274-3.92h1.4c.112.457.243.947.392 1.47.159.513.322 1.027.49 1.54.177.504.355.994.532 1.47.177.476.345.9.504 1.274.159-.373.327-.798.504-1.274s.35-.966.518-1.47c.177-.513.34-1.027.49-1.54a28.15 28.15 0 00.406-1.47h1.344zm.746 3.654c0-.644.093-1.204.28-1.68.187-.485.434-.887.742-1.204a3.014 3.014 0 011.064-.714 3.323 3.323 0 011.232-.238c.98 0 1.731.308 2.254.924.523.607.784 1.535.784 2.786v.224c0 .084-.005.163-.014.238h-4.984c.056.756.275 1.33.658 1.722.383.392.98.588 1.792.588.457 0 .84-.037 1.148-.112a4.47 4.47 0 00.714-.238l.182 1.092c-.159.084-.439.173-.84.266-.392.093-.84.14-1.344.14-.635 0-1.185-.093-1.652-.28a3.151 3.151 0 01-1.134-.798 3.316 3.316 0 01-.672-1.19 5.29 5.29 0 01-.21-1.526zm4.998-.714c.01-.588-.14-1.069-.448-1.442-.299-.383-.714-.574-1.246-.574-.299 0-.565.06-.798.182a1.802 1.802 0 00-.574.448 2.209 2.209 0 00-.378.644c-.084.243-.14.49-.168.742h3.612zm5.412 4.48c-.802-.019-1.372-.191-1.708-.518-.336-.327-.504-.835-.504-1.526V14.36l1.302-.224v8.75c0 .215.019.392.056.532.038.14.098.252.182.336.084.084.196.15.336.196.14.037.313.07.518.098l-.182 1.092zm8.07-3.78c0 .579-.084 1.101-.252 1.568a3.525 3.525 0 01-.714 1.204 3.113 3.113 0 01-1.078.784 3.49 3.49 0 01-1.372.266 3.5 3.5 0 01-1.372-.266 3.263 3.263 0 01-1.092-.784 3.662 3.662 0 01-.7-1.204 4.605 4.605 0 01-.252-1.568c0-.57.084-1.087.252-1.554.168-.476.402-.882.7-1.218a3.1 3.1 0 011.092-.77c.42-.187.878-.28 1.372-.28.495 0 .952.093 1.372.28.42.177.78.434 1.078.77.308.336.546.742.714 1.218.168.467.252.985.252 1.554zm-1.358 0c0-.821-.186-1.47-.56-1.946-.364-.485-.863-.728-1.498-.728-.634 0-1.138.243-1.512.728-.364.476-.546 1.125-.546 1.946s.182 1.475.546 1.96c.374.476.878.714 1.512.714.635 0 1.134-.238 1.498-.714.374-.485.56-1.139.56-1.96zm8.244.014c0-.85-.21-1.503-.63-1.96-.42-.457-.98-.686-1.68-.686-.392 0-.7.014-.924.042-.214.028-.387.06-.518.098v4.592c.159.13.388.257.686.378.299.121.626.182.98.182.374 0 .691-.065.952-.196.271-.14.49-.327.658-.56a2.43 2.43 0 00.364-.84 4.69 4.69 0 00.112-1.05zm1.358 0c0 .55-.074 1.06-.224 1.526-.14.467-.35.868-.63 1.204a2.88 2.88 0 01-1.036.784c-.401.187-.863.28-1.386.28-.42 0-.793-.056-1.12-.168a3.56 3.56 0 01-.714-.322v2.912h-1.302v-9.646a21.19 21.19 0 011.148-.238 8.281 8.281 0 011.61-.14c.56 0 1.064.089 1.512.266.448.177.831.43 1.148.756.318.327.56.728.728 1.204.178.467.266.994.266 1.582zm1.426 0c0-.644.094-1.204.28-1.68.187-.485.434-.887.742-1.204a3.017 3.017 0 011.064-.714 3.326 3.326 0 011.232-.238c.98 0 1.732.308 2.254.924.523.607.784 1.535.784 2.786v.224a1.8 1.8 0 01-.014.238h-4.984c.056.756.276 1.33.658 1.722.383.392.98.588 1.792.588.458 0 .84-.037 1.148-.112a4.42 4.42 0 00.714-.238l.182 1.092c-.158.084-.438.173-.84.266-.392.093-.84.14-1.344.14-.634 0-1.185-.093-1.652-.28a3.156 3.156 0 01-1.134-.798 3.337 3.337 0 01-.672-1.19 5.29 5.29 0 01-.21-1.526zm4.998-.714c.01-.588-.14-1.069-.448-1.442-.298-.383-.714-.574-1.246-.574a1.7 1.7 0 00-.798.182 1.806 1.806 0 00-.574.448 2.24 2.24 0 00-.378.644c-.084.243-.14.49-.168.742h3.612zm5.917-3.094c.112 0 .238.01.378.028.149.01.294.028.434.056.14.019.266.042.378.07.121.019.21.037.266.056l-.224 1.134a3.85 3.85 0 00-.518-.126 4.026 4.026 0 00-.91-.084c-.243 0-.486.028-.728.084-.234.047-.388.08-.462.098V25h-1.302v-6.972c.308-.112.69-.215 1.148-.308.457-.103.97-.154 1.54-.154zm4.406 6.496c.532 0 .924-.07 1.176-.21.261-.14.392-.364.392-.672a.892.892 0 00-.378-.756c-.252-.187-.667-.397-1.246-.63-.28-.112-.551-.224-.812-.336a3.064 3.064 0 01-.658-.42 1.798 1.798 0 01-.448-.574c-.112-.224-.168-.5-.168-.826 0-.644.238-1.153.714-1.526.476-.383 1.125-.574 1.946-.574.205 0 .411.014.616.042.205.019.397.047.574.084.177.028.331.06.462.098.14.037.247.07.322.098l-.238 1.12a3.015 3.015 0 00-.658-.224 4.023 4.023 0 00-1.078-.126c-.364 0-.681.075-.952.224a.704.704 0 00-.406.672.99.99 0 00.084.42c.065.121.159.233.28.336.131.093.289.182.476.266.187.084.411.173.672.266.345.13.653.261.924.392.271.121.499.266.686.434.196.168.345.373.448.616.103.233.154.523.154.868 0 .672-.252 1.18-.756 1.526-.495.345-1.204.518-2.128.518-.644 0-1.148-.056-1.512-.168a7.196 7.196 0 01-.742-.238l.238-1.12c.149.056.387.14.714.252.327.112.761.168 1.302.168zm10.636-9.926c.383 0 .71.028.98.084.28.056.476.107.588.154l-.238 1.12a2.178 2.178 0 00-.476-.154 2.911 2.911 0 00-.756-.084c-.606 0-1.031.168-1.274.504-.242.327-.364.77-.364 1.33v.63h2.8v1.092h-2.8V25h-1.302v-7.938c0-.933.229-1.652.686-2.156.458-.513 1.176-.77 2.156-.77zm5.247 3.43c.112 0 .238.01.378.028.149.01.294.028.434.056.14.019.266.042.378.07.121.019.21.037.266.056l-.224 1.134a3.85 3.85 0 00-.518-.126 4.026 4.026 0 00-.91-.084c-.243 0-.486.028-.728.084-.234.047-.388.08-.462.098V25h-1.302v-6.972c.308-.112.69-.215 1.148-.308.457-.103.97-.154 1.54-.154zm9.138 3.794c0 .579-.084 1.101-.252 1.568a3.525 3.525 0 01-.714 1.204 3.122 3.122 0 01-1.078.784 3.49 3.49 0 01-1.372.266 3.49 3.49 0 01-1.372-.266 3.263 3.263 0 01-1.092-.784 3.644 3.644 0 01-.7-1.204 4.605 4.605 0 01-.252-1.568c0-.57.084-1.087.252-1.554a3.62 3.62 0 01.7-1.218 3.1 3.1 0 011.092-.77c.42-.187.877-.28 1.372-.28.495 0 .952.093 1.372.28.42.177.779.434 1.078.77.308.336.546.742.714 1.218.168.467.252.985.252 1.554zm-1.358 0c0-.821-.187-1.47-.56-1.946-.364-.485-.863-.728-1.498-.728s-1.139.243-1.512.728c-.364.476-.546 1.125-.546 1.946s.182 1.475.546 1.96c.373.476.877.714 1.512.714s1.134-.238 1.498-.714c.373-.485.56-1.139.56-1.96zm3.19-3.43a17.05 17.05 0 011.176-.238 10.298 10.298 0 011.708-.126c.467 0 .859.065 1.176.196.317.121.583.303.798.546.065-.047.168-.112.308-.196.14-.084.313-.163.518-.238.205-.084.434-.154.686-.21a3.23 3.23 0 01.812-.098c.56 0 1.017.084 1.372.252.355.159.63.387.826.686.205.299.341.653.406 1.064.075.41.112.859.112 1.344V25h-1.302v-3.808c0-.43-.023-.798-.07-1.106a1.97 1.97 0 00-.238-.77 1.007 1.007 0 00-.476-.448c-.196-.103-.453-.154-.77-.154-.439 0-.803.06-1.092.182-.28.112-.471.215-.574.308.075.243.131.509.168.798.037.29.056.593.056.91V25h-1.302v-3.808c0-.43-.023-.798-.07-1.106a2.149 2.149 0 00-.252-.77 1.007 1.007 0 00-.476-.448c-.196-.103-.448-.154-.756-.154a6.764 6.764 0 00-.854.056 3.883 3.883 0 00-.588.084V25h-1.302v-7.07zm16.601.112a3.507 3.507 0 011.834-.49c.522 0 .984.093 1.386.28.41.187.756.448 1.036.784s.49.737.63 1.204c.149.467.224.98.224 1.54 0 .588-.089 1.12-.266 1.596a3.277 3.277 0 01-.728 1.19c-.318.327-.7.579-1.148.756a4.08 4.08 0 01-1.512.266 9.158 9.158 0 01-1.61-.126c-.467-.084-.85-.168-1.148-.252V14.36l1.302-.224v3.906zm0 5.824c.13.037.312.075.546.112a8 8 0 00.896.042c.7 0 1.26-.229 1.68-.686.42-.467.63-1.125.63-1.974 0-.373-.038-.723-.112-1.05a2.3 2.3 0 00-.364-.84 1.672 1.672 0 00-.658-.56c-.262-.14-.579-.21-.952-.21-.355 0-.682.06-.98.182-.299.121-.528.247-.686.378v4.606zm6.536-2.492c0-.644.093-1.204.28-1.68.187-.485.434-.887.742-1.204a3.017 3.017 0 011.064-.714 3.322 3.322 0 011.232-.238c.98 0 1.731.308 2.254.924.523.607.784 1.535.784 2.786v.224c0 .084-.005.163-.014.238h-4.984c.056.756.275 1.33.658 1.722.383.392.98.588 1.792.588.457 0 .84-.037 1.148-.112a4.46 4.46 0 00.714-.238l.182 1.092c-.159.084-.439.173-.84.266-.392.093-.84.14-1.344.14-.635 0-1.185-.093-1.652-.28a3.156 3.156 0 01-1.134-.798 3.307 3.307 0 01-.672-1.19 5.29 5.29 0 01-.21-1.526zm4.998-.714c.009-.588-.14-1.069-.448-1.442-.299-.383-.714-.574-1.246-.574-.299 0-.565.06-.798.182a1.806 1.806 0 00-.574.448 2.195 2.195 0 00-.378.644c-.084.243-.14.49-.168.742h3.612zm3.228-2.73c.299-.075.696-.154 1.19-.238a10.298 10.298 0 011.708-.126c.579 0 1.06.084 1.442.252.383.159.686.387.91.686.234.29.397.64.49 1.05.094.41.14.863.14 1.358V25h-1.302v-3.808c0-.448-.032-.83-.098-1.148-.056-.317-.154-.574-.294-.77a1.146 1.146 0 00-.56-.42c-.233-.093-.522-.14-.868-.14a7.004 7.004 0 00-.868.056 3.923 3.923 0 00-.588.084V25h-1.302v-7.07zm11.203 7.238c-.588 0-1.106-.093-1.554-.28a3.201 3.201 0 01-1.12-.784 3.337 3.337 0 01-.672-1.19 5.042 5.042 0 01-.224-1.54c0-.56.08-1.073.238-1.54.168-.467.402-.868.7-1.204a3.016 3.016 0 011.092-.798 3.53 3.53 0 011.456-.294c.327 0 .654.028.98.084.327.056.64.145.938.266l-.294 1.106a3.105 3.105 0 00-.686-.224 3.734 3.734 0 00-.812-.084c-.728 0-1.288.229-1.68.686-.382.457-.574 1.125-.574 2.002 0 .392.042.751.126 1.078.094.327.234.607.42.84.196.233.444.415.742.546.299.121.663.182 1.092.182.346 0 .658-.033.938-.098.28-.065.5-.135.658-.21l.182 1.092a1.54 1.54 0 01-.322.14c-.14.037-.298.07-.476.098a4.962 4.962 0 01-.574.084 4.053 4.053 0 01-.574.042zm3.344-.168V14.36l1.302-.224v3.724c.243-.093.499-.163.77-.21.28-.056.555-.084.826-.084.579 0 1.059.084 1.442.252.383.159.686.387.91.686.233.29.397.64.49 1.05.093.41.14.863.14 1.358V25h-1.302v-3.808c0-.448-.033-.83-.098-1.148-.056-.317-.154-.574-.294-.77a1.15 1.15 0 00-.56-.42c-.233-.093-.523-.14-.868-.14-.14 0-.285.01-.434.028a6.07 6.07 0 00-.434.07 3.598 3.598 0 00-.364.07 2.271 2.271 0 00-.224.07V25h-1.302zm17.664-3.64c0 .579-.084 1.101-.252 1.568a3.525 3.525 0 01-.714 1.204 3.113 3.113 0 01-1.078.784 3.49 3.49 0 01-1.372.266 3.5 3.5 0 01-1.372-.266 3.263 3.263 0 01-1.092-.784 3.662 3.662 0 01-.7-1.204 4.605 4.605 0 01-.252-1.568c0-.57.084-1.087.252-1.554.168-.476.402-.882.7-1.218a3.1 3.1 0 011.092-.77c.42-.187.878-.28 1.372-.28.495 0 .952.093 1.372.28.42.177.78.434 1.078.77.308.336.546.742.714 1.218.168.467.252.985.252 1.554zm-1.358 0c0-.821-.186-1.47-.56-1.946-.364-.485-.863-.728-1.498-.728-.634 0-1.138.243-1.512.728-.364.476-.546 1.125-.546 1.946s.182 1.475.546 1.96c.374.476.878.714 1.512.714.635 0 1.134-.238 1.498-.714.374-.485.56-1.139.56-1.96zm5.878-3.794c.112 0 .238.01.378.028.15.01.294.028.434.056.14.019.266.042.378.07.122.019.21.037.266.056l-.224 1.134a3.77 3.77 0 00-.518-.126 4.014 4.014 0 00-.91-.084c-.242 0-.485.028-.728.084-.233.047-.387.08-.462.098V25h-1.302v-6.972a8.257 8.257 0 011.148-.308 7.056 7.056 0 011.54-.154zm-184.324 20c.112 0 .238.01.378.028.15.01.294.028.434.056.14.019.266.042.378.07.121.019.21.037.266.056l-.224 1.134a3.81 3.81 0 00-.518-.126 4.02 4.02 0 00-.91-.084c-.243 0-.485.028-.728.084-.233.047-.387.08-.462.098V45H42.12v-6.972c.308-.112.69-.215 1.148-.308a7.05 7.05 0 011.54-.154zm2.306 3.808c0-.644.094-1.204.28-1.68.187-.485.434-.887.742-1.204a3.014 3.014 0 011.064-.714 3.323 3.323 0 011.232-.238c.98 0 1.732.308 2.254.924.523.607.784 1.535.784 2.786v.224c0 .084-.004.163-.014.238h-4.984c.056.756.276 1.33.658 1.722.383.392.98.588 1.792.588.458 0 .84-.037 1.148-.112a4.47 4.47 0 00.714-.238l.182 1.092c-.158.084-.438.173-.84.266-.392.093-.84.14-1.344.14-.634 0-1.185-.093-1.652-.28a3.151 3.151 0 01-1.134-.798 3.316 3.316 0 01-.672-1.19 5.29 5.29 0 01-.21-1.526zm4.998-.714c.01-.588-.14-1.069-.448-1.442-.298-.383-.714-.574-1.246-.574a1.7 1.7 0 00-.798.182 1.802 1.802 0 00-.574.448 2.209 2.209 0 00-.378.644c-.084.243-.14.49-.168.742h3.612zm6.393 4.508c-.588 0-1.106-.093-1.554-.28a3.195 3.195 0 01-1.12-.784 3.316 3.316 0 01-.672-1.19 5.033 5.033 0 01-.224-1.54c0-.56.079-1.073.238-1.54a3.65 3.65 0 01.7-1.204 3.011 3.011 0 011.092-.798 3.53 3.53 0 011.456-.294c.326 0 .653.028.98.084.326.056.639.145.938.266l-.294 1.106a3.117 3.117 0 00-.686-.224 3.739 3.739 0 00-.812-.084c-.728 0-1.288.229-1.68.686-.383.457-.574 1.125-.574 2.002 0 .392.042.751.126 1.078.093.327.233.607.42.84.196.233.443.415.742.546.298.121.662.182 1.092.182.345 0 .658-.033.938-.098.28-.065.499-.135.658-.21l.182 1.092a1.558 1.558 0 01-.322.14c-.14.037-.299.07-.476.098a4.994 4.994 0 01-.574.084 4.057 4.057 0 01-.574.042zm6.032-7.602c.111 0 .237.01.377.028.15.01.294.028.434.056.14.019.267.042.379.07.12.019.21.037.266.056l-.224 1.134a3.81 3.81 0 00-.519-.126 4.02 4.02 0 00-.91-.084c-.242 0-.485.028-.728.084-.233.047-.387.08-.462.098V45h-1.3v-6.972c.308-.112.69-.215 1.148-.308a7.05 7.05 0 011.54-.154zm8.508 7.224c-.299.075-.695.154-1.19.238a10.04 10.04 0 01-1.694.126c-.56 0-1.031-.08-1.414-.238a2.34 2.34 0 01-.924-.7 2.818 2.818 0 01-.504-1.05 5.596 5.596 0 01-.154-1.358V37.72h1.302v3.808c0 .887.14 1.521.42 1.904.28.383.751.574 1.414.574.14 0 .285-.005.434-.014l.42-.028a6.15 6.15 0 01.35-.042c.112-.019.191-.037.238-.056V37.72h1.302v7.07zm3.545.21h-1.302v-7.28h1.302V45zm-.658-8.596a.876.876 0 01-.602-.224c-.159-.159-.238-.369-.238-.63s.08-.467.238-.616a.846.846 0 01.602-.238.8.8 0 01.588.238c.168.15.252.355.252.616s-.084.471-.252.63a.826.826 0 01-.588.224zm4.115 1.316h2.758v1.092h-2.758v3.36c0 .364.028.667.084.91.056.233.14.42.252.56.112.13.252.224.42.28.168.056.364.084.588.084.392 0 .705-.042.938-.126.243-.093.41-.159.504-.196l.252 1.078a4.47 4.47 0 01-.686.238c-.327.103-.7.154-1.12.154-.495 0-.905-.06-1.232-.182a1.842 1.842 0 01-.77-.574 2.34 2.34 0 01-.42-.924 6.615 6.615 0 01-.112-1.288V35.69l1.302-.224v2.254zm7.655.21a16.52 16.52 0 011.19-.238 10.296 10.296 0 011.708-.126c.579 0 1.06.084 1.442.252.383.159.686.387.91.686.233.29.397.64.49 1.05.093.41.14.863.14 1.358V45H92.28v-3.808c0-.448-.033-.83-.098-1.148-.056-.317-.154-.574-.294-.77a1.149 1.149 0 00-.56-.42c-.233-.093-.523-.14-.868-.14a6.99 6.99 0 00-.868.056 3.899 3.899 0 00-.588.084V45h-1.302v-7.07zm7.633 3.444c0-.644.093-1.204.28-1.68.187-.485.434-.887.742-1.204a3.014 3.014 0 011.064-.714 3.323 3.323 0 011.232-.238c.98 0 1.731.308 2.254.924.523.607.784 1.535.784 2.786v.224c0 .084-.005.163-.014.238h-4.984c.056.756.275 1.33.658 1.722.383.392.98.588 1.792.588.457 0 .84-.037 1.148-.112a4.46 4.46 0 00.714-.238l.182 1.092c-.159.084-.439.173-.84.266a5.83 5.83 0 01-1.344.14c-.635 0-1.185-.093-1.652-.28a3.151 3.151 0 01-1.134-.798 3.316 3.316 0 01-.672-1.19 5.29 5.29 0 01-.21-1.526zm4.998-.714c.009-.588-.14-1.069-.448-1.442-.299-.383-.714-.574-1.246-.574-.299 0-.565.06-.798.182a1.802 1.802 0 00-.574.448 2.209 2.209 0 00-.378.644c-.084.243-.14.49-.168.742h3.612zm9.178 4.34a69.779 69.779 0 01-.84-2.296 42.263 42.263 0 01-.798-2.702 41.007 41.007 0 01-.798 2.702 52.348 52.348 0 01-.826 2.296h-1.134a36.333 36.333 0 01-1.26-3.29 58.128 58.128 0 01-1.162-3.99h1.4c.094.439.206.915.336 1.428.131.513.266 1.027.406 1.54a43.2 43.2 0 00.462 1.484c.159.476.308.891.448 1.246.159-.439.313-.9.462-1.386.159-.495.308-.99.448-1.484.14-.504.271-.994.392-1.47.131-.485.243-.938.336-1.358h1.078c.084.42.187.873.308 1.358.122.476.252.966.392 1.47.14.495.285.99.434 1.484.159.485.318.947.476 1.386.14-.355.285-.77.434-1.246a44.021 44.021 0 001.218-4.452h1.344a57.57 57.57 0 01-1.162 3.99 35.746 35.746 0 01-1.26 3.29h-1.134zm9.391-7.28h2.758v1.092h-2.758v3.36c0 .364.028.667.084.91.056.233.14.42.252.56.112.13.252.224.42.28.168.056.364.084.588.084.392 0 .705-.042.938-.126.243-.093.411-.159.504-.196l.252 1.078a4.43 4.43 0 01-.686.238 3.73 3.73 0 01-1.12.154c-.494 0-.905-.06-1.232-.182a1.844 1.844 0 01-.77-.574 2.34 2.34 0 01-.42-.924 6.67 6.67 0 01-.112-1.288V35.69l1.302-.224v2.254zm3.873 3.654c0-.644.093-1.204.28-1.68.186-.485.434-.887.742-1.204a3.008 3.008 0 011.064-.714 3.322 3.322 0 011.232-.238c.98 0 1.731.308 2.254.924.522.607.784 1.535.784 2.786v.224c0 .084-.005.163-.014.238h-4.984c.056.756.275 1.33.658 1.722.382.392.98.588 1.792.588.457 0 .84-.037 1.148-.112a4.46 4.46 0 00.714-.238l.182 1.092c-.159.084-.439.173-.84.266-.392.093-.84.14-1.344.14-.635 0-1.186-.093-1.652-.28a3.14 3.14 0 01-1.134-.798 3.307 3.307 0 01-.672-1.19 5.29 5.29 0 01-.21-1.526zm4.998-.714c.009-.588-.14-1.069-.448-1.442-.299-.383-.714-.574-1.246-.574-.299 0-.565.06-.798.182a1.795 1.795 0 00-.574.448 2.195 2.195 0 00-.378.644c-.084.243-.14.49-.168.742h3.612zm5.692 3.402c.308 0 .579-.005.812-.014.243-.019.443-.047.602-.084v-2.17c-.093-.047-.247-.084-.462-.112a4.313 4.313 0 00-.756-.056c-.196 0-.406.014-.63.042a1.88 1.88 0 00-.602.182 1.208 1.208 0 00-.448.364c-.121.15-.182.35-.182.602 0 .467.149.793.448.98.299.177.705.266 1.218.266zm-.112-6.524c.523 0 .961.07 1.316.21a2 2 0 01.868.574c.224.243.383.537.476.882.093.336.14.71.14 1.12v4.55l-.476.084a17.678 17.678 0 01-1.498.154 9.006 9.006 0 01-.868.042c-.411 0-.789-.042-1.134-.126a2.617 2.617 0 01-.896-.392 1.883 1.883 0 01-.588-.728c-.14-.299-.21-.658-.21-1.078 0-.401.079-.747.238-1.036.168-.29.392-.523.672-.7a3.09 3.09 0 01.98-.392 5.34 5.34 0 011.176-.126c.131 0 .266.01.406.028.14.01.271.028.392.056a6.15 6.15 0 01.532.098v-.364a2.81 2.81 0 00-.07-.63 1.406 1.406 0 00-.252-.56 1.185 1.185 0 00-.504-.392c-.205-.103-.476-.154-.812-.154a5.84 5.84 0 00-1.134.098 3.688 3.688 0 00-.714.182l-.154-1.078c.168-.075.448-.145.84-.21a6.813 6.813 0 011.274-.112zm4.962.392a17.05 17.05 0 011.176-.238 10.298 10.298 0 011.708-.126c.467 0 .859.065 1.176.196.318.121.584.303.798.546.066-.047.168-.112.308-.196.14-.084.313-.163.518-.238.206-.084.434-.154.686-.21a3.23 3.23 0 01.812-.098c.56 0 1.018.084 1.372.252.355.159.63.387.826.686.206.299.341.653.406 1.064.075.41.112.859.112 1.344V45h-1.302v-3.808c0-.43-.023-.798-.07-1.106a1.953 1.953 0 00-.238-.77 1.003 1.003 0 00-.476-.448c-.196-.103-.452-.154-.77-.154-.438 0-.802.06-1.092.182-.28.112-.471.215-.574.308.075.243.131.509.168.798.038.29.056.593.056.91V45h-1.302v-3.808c0-.43-.023-.798-.07-1.106a2.11 2.11 0 00-.252-.77 1.003 1.003 0 00-.476-.448c-.196-.103-.448-.154-.756-.154a6.815 6.815 0 00-.854.056 3.923 3.923 0 00-.588.084V45h-1.302v-7.07z" fill="#000"/></svg>