<svg width="25" height="26" fill="none" xmlns="http://www.w3.org/2000/svg"><path d="M18.674 6.75A9.677 9.677 0 0016 2.86 9.314 9.314 0 0011.844.755a9.167 9.167 0 00-4.63.187A9.365 9.365 0 003.23 3.377 9.733 9.733 0 00.861 7.47a9.935 9.935 0 00-.181 4.76 9.784 9.784 0 002.049 4.27 9.42 9.42 0 003.784 2.75 9.677 9.677 0 002.675 3.89 9.315 9.315 0 004.156 2.106 9.167 9.167 0 004.63-.187 9.365 9.365 0 003.982-2.436 9.733 9.733 0 002.37-4.093 9.936 9.936 0 00.181-4.76 9.783 9.783 0 00-2.049-4.27 9.42 9.42 0 00-3.784-2.75zm-1.946 2c.088.47.133.947.134 1.425a7.593 7.593 0 01-.194 1.675L13.7 8.825a7.014 7.014 0 011.63-.2c.465.001.93.047 1.386.137l.012-.012zm-1.143 5.5a7.402 7.402 0 01-1.775 1.825L9.602 11.75a7.403 7.403 0 011.775-1.825l4.208 4.325zm-9.729 1.825a7.117 7.117 0 01-2.062-2.29 7.374 7.374 0 01-.534-6.069c.349-.99.905-1.89 1.63-2.634a6.972 6.972 0 012.562-1.676 6.817 6.817 0 015.905.549 7.07 7.07 0 012.228 2.12h-.304a9.312 9.312 0 00-6.646 2.876 9.841 9.841 0 00-2.73 6.861c0 .1.012.213.012.313l-.06-.05zm2.554 1.113a7.857 7.857 0 01-.134-1.425 7.597 7.597 0 01.195-1.675l2.955 3.037c-.534.13-1.08.197-1.63.2a7.246 7.246 0 01-1.325-.087l-.06-.05zM15.33 23a6.865 6.865 0 01-3.265-.836 7.085 7.085 0 01-2.512-2.302h.304a9.31 9.31 0 006.657-2.836 9.838 9.838 0 002.768-6.838v-.313a7.166 7.166 0 012.661 3.568 7.377 7.377 0 01.079 4.495 7.185 7.185 0 01-2.535 3.663A6.867 6.867 0 0115.33 23z" fill="#000"/></svg>