<svg width="29" height="23" fill="none" xmlns="http://www.w3.org/2000/svg"><path d="M14.887 11.784a6.355 6.355 0 002.196-4.805 6.459 6.459 0 00-12.916 0 6.355 6.355 0 002.195 4.805 10.334 10.334 0 00-6.07 9.403 1.292 1.292 0 102.583 0 7.75 7.75 0 0115.5 0 1.291 1.291 0 102.583 0 10.334 10.334 0 00-6.07-9.403zm-4.262-.93a3.876 3.876 0 110-7.751 3.876 3.876 0 010 7.751zm12.58.414A6.458 6.458 0 0018.376.52a1.292 1.292 0 000 2.583A3.875 3.875 0 0122.25 6.98a3.875 3.875 0 01-1.938 3.346 1.293 1.293 0 00-.499 1.715c.102.195.252.36.435.48l.503.336.168.09a9.042 9.042 0 015.167 8.242 1.292 1.292 0 102.583 0 11.625 11.625 0 00-5.463-9.92z" fill="#000"/></svg>