<svg width="50" height="22" fill="none" xmlns="http://www.w3.org/2000/svg"><path d="M10 .348h30c5.33 0 9.652 4.321 9.652 9.652v1.579A9.652 9.652 0 0140 21.23H10a9.652 9.652 0 01-9.652-9.652V10A9.652 9.652 0 0110 .348z" fill="url(#paint0_linear_1604_77337)" stroke="#fff" stroke-width=".696"/><path d="M10.155 13.065h-.006a.943.943 0 00-1.368-1.172 1.312 1.312 0 00-1.217-.813 1.313 1.313 0 00-1.306 1.476h-.01a.884.884 0 00-.623 1.506c.165.165.39.258.623.259h3.905a.625.625 0 00.58-.866.625.625 0 00-.578-.39zm10.935 3.703h-.005a.705.705 0 00-1.024-.877.982.982 0 00-1.288-.536.983.983 0 00-.6 1.03h-.006a.662.662 0 00-.467 1.127.662.662 0 00.466.194h2.924a.468.468 0 000-.938z" fill="#fff"/><path d="M17.398 8.617a1.65 1.65 0 10-.007-3.298 1.65 1.65 0 00.007 3.298zM17.39 4.69a.198.198 0 01-.198-.196V3.085a.197.197 0 01.197-.197.197.197 0 01.197.197v1.409a.189.189 0 01-.12.183.19.19 0 01-.077.013zm.018 6.363a.198.198 0 01-.197-.197V9.448a.198.198 0 01.197-.197.198.198 0 01.197.197v1.408a.197.197 0 01-.197.197zm1.599-5.696a.199.199 0 010-.28l.995-.995a.2.2 0 01.28 0 .199.199 0 010 .279l-.996.996a.199.199 0 01-.28 0zM14.515 9.86a.199.199 0 010-.278l.996-.996a.199.199 0 01.28 0 .199.199 0 010 .28l-.997.995a.188.188 0 01-.279 0zm5.157-2.892a.198.198 0 01.197-.197h1.408a.198.198 0 01.197.197.198.198 0 01-.197.197H19.87a.198.198 0 01-.197-.197zm-6.356.012a.198.198 0 01.197-.196h1.408a.198.198 0 01.197.197.198.198 0 01-.197.197h-1.408a.198.198 0 01-.197-.197zm5.696 1.6a.199.199 0 01.28 0l.995.995a.2.2 0 010 .28.199.199 0 01-.279 0l-.996-.997a.195.195 0 01-.044-.215.195.195 0 01.044-.064zm-4.51-4.485a.199.199 0 01.279 0l.996.995a.199.199 0 010 .28.199.199 0 01-.28 0l-.995-.996a.199.199 0 010-.28z" fill="#FFDC7B"/><path d="M24.97 9.842h-.012a1.863 1.863 0 00-2.703-2.31 2.585 2.585 0 00-2.398-1.6 2.583 2.583 0 00-2.582 2.595 1.74 1.74 0 00.025.316h-.019a1.737 1.737 0 00-1.732 1.737 1.737 1.737 0 001.737 1.732l7.695-.019a1.233 1.233 0 001.23-1.237 1.244 1.244 0 00-1.24-1.214z" fill="#fff"/><defs><linearGradient id="paint0_linear_1604_77337" x1="6.316" y1="1.579" x2="52.368" y2="23.947" gradientUnits="userSpaceOnUse"><stop stop-color="#509BC6"/><stop offset=".531" stop-color="#47987F"/></linearGradient></defs></svg>